<?xml version="1.0" encoding="UTF-8"?>
<!-- Created with Inkscape (http://www.inkscape.org/) -->
<svg width="59.973mm" height="59.973mm" version="1.1" viewBox="0 0 59.973 59.973" xmlns="http://www.w3.org/2000/svg" xmlns:cc="http://creativecommons.org/ns#" xmlns:dc="http://purl.org/dc/elements/1.1/" xmlns:rdf="http://www.w3.org/1999/02/22-rdf-syntax-ns#">
 <defs>
  <clipPath id="clipPath4559">
   <path d="m315 204.58c0-46.946 38.055-85.002 84.999-85.002 46.946 0 85.003 38.056 85.003 85.002 0 46.943-38.057 85-85.003 85-46.944 0-84.999-38.057-84.999-85"/>
  </clipPath>
 </defs>
 <metadata>
  <rdf:RDF>
   <cc:Work rdf:about="">
    <dc:format>image/svg+xml</dc:format>
    <dc:type rdf:resource="http://purl.org/dc/dcmitype/StillImage"/>
    <dc:title/>
   </cc:Work>
  </rdf:RDF>
 </metadata>
 <g transform="translate(-13.287 -207.17)">
  <g transform="matrix(.35278 0 0 -.35278 73.26 237.15)">
   <path d="m0 0c0 46.943-38.057 85-85.003 85-46.944 0-84.999-38.057-84.999-85 0-46.945 38.055-85.002 84.999-85.002 46.946 0 85.003 38.057 85.003 85.002" fill="#6980a2"/>
  </g>
  <g transform="matrix(.35278 0 0 -.35278 -97.838 309.32)">
   <g clip-path="url(#clipPath4559)">
    <g transform="translate(449.99 165.26)">
     <path d="m0 0c-1.174 3.669-2.654 7.241-4.562 10.362-2.271 3.733-3.878 7.85-5.022 11.873-1.954 6.869-2.541 13.469-2.732 17.411 0 0.153 0.014 0.302 0.014 0.456 0 0.682-0.065 1.348-0.103 2.02-9e-3 0.803 0 1.299 0 1.299l-0.056-0.09c-1.644 19.158-17.686 34.204-37.267 34.204h-6e-3c-19.558 0-35.595-15.011-37.264-34.139l-0.02 0.025s5e-3 -0.109 8e-3 -0.284c-0.083-1.005-0.155-2.011-0.155-3.036 0-0.313 0.03-0.62 0.038-0.933-0.212-3.772-0.769-9.662-2.41-15.876-1.16-4.361-2.839-8.875-5.324-12.93-1.806-2.953-3.238-6.306-4.386-9.761-4.505-13.551-4.519-28.791-4.519-28.791 0.149-6.139 1.33-12.018 3.36-17.486h101.35c2.037 5.489 3.221 11.393 3.363 17.558 0 0-0.019 14.745-4.306 28.118" fill="#fff"/>
    </g>
    <g transform="translate(456.74 152.04)">
     <path d="m0 0c0 0.01-3e-3 0.015-3e-3 0.023 0.041-0.031 0.072-0.058 0.106-0.089 0.037-0.023 0.069-0.05 0.101-0.075-0.064 0.052-0.141 0.092-0.204 0.141" fill="#b66916"/>
    </g>
    <g transform="translate(405.08 283.5)">
     <path d="m0 0c2.102-4.947 2.958-9.511 3.802-13.424 0.412-2.032 0.818-3.201 1.285-5.121 0.434-2.023 0.838-4.455 0.928-7.023 0.228-5.144-0.7-10.886-2.914-16.012-2.248-5.117-5.594-9.703-10.383-12.631-0.891 5.621-1.189 9.999-1.544 14.002-0.33 4-0.614 7.498-0.753 11.355-0.083 1.942-0.096 3.958-0.045 6.383 0.024 2.523 0.407 5.912 1.257 8.457 1.679 5.25 4.217 9.865 8.367 14.014" fill="#940d0a"/>
    </g>
    <g transform="translate(415.63 221.39)">
     <path d="m0 0c-6.897 0-12.815-3.981-15.344-9.658-7e-3 0.017-0.015 0.027-0.02 0.039-2.542 5.654-8.446 9.619-15.329 9.619-9.194 0-16.654-7.084-16.654-15.828 0-8.741 7.46-15.822 16.654-15.822 6.883 0 12.787-1.002 15.329 4.625 5e-3 0.013 0.013 0.026 0.02 0.043 2.529-5.679 8.447-4.668 15.344-4.668 9.2 0 16.659 7.082 16.659 15.822 0 8.744-7.459 15.828-16.659 15.828" fill="#f6e9e5"/>
    </g>
    <g transform="translate(393.33 192.29)">
     <path d="m0 0s-24.067-61.396-5.162-65.797c18.906-4.402 10.118 50.109 9.665 53.455" fill="#940d0a"/>
    </g>
    <g transform="translate(407.19 192.29)">
     <path d="m0 0s24.066-61.396 5.162-65.797c-18.905-4.402-10.117 50.109-9.666 53.455" fill="#940d0a"/>
    </g>
    <g transform="translate(407.65 192.13)">
     <path d="m0 0-4.255 2.054c-0.855 0.414-1.987 0.622-3.112 0.622-1.132 0-2.256-0.208-3.113-0.622l-4.256-2.054c-1.711-0.826-2.257-2.557-1.203-3.848l6.659-8.178c0.529-0.648 1.221-0.968 1.913-0.968 0.689 0 1.38 0.32 1.906 0.968l6.666 8.178c1.046 1.291 0.506 3.022-1.205 3.848" fill="#fbdd58"/>
    </g>
    <g transform="translate(380.04 208.95)">
     <path d="m0 0s12.397 3.594 12.119-9.012c0 0-12.119-4.4-12.119 9.012" fill="#fff"/>
    </g>
    <g transform="translate(389.41 204.33)">
     <path d="m0 0c0-1.66-1.344-3.008-3.007-3.008-1.658 0-3.003 1.348-3.003 3.008 0 1.659 1.345 3.006 3.003 3.006 1.663 0 3.007-1.347 3.007-3.006" fill="#191009"/>
    </g>
    <g transform="translate(388.45 205.73)">
     <path d="m0 0c0-0.389-0.316-0.705-0.706-0.705-0.389 0-0.704 0.316-0.704 0.705 0 0.391 0.315 0.706 0.704 0.706 0.39 0 0.706-0.315 0.706-0.706" fill="#fff"/>
    </g>
    <g transform="translate(422.61 208.95)">
     <path d="m0 0s-12.397 3.594-12.117-9.012c0 0 12.117-4.4 12.117 9.012" fill="#fff"/>
    </g>
    <g transform="translate(412.48 204.33)">
     <path d="m0 0c0-1.66 1.345-3.008 3.006-3.008 1.66 0 3.006 1.348 3.006 3.008 0 1.659-1.346 3.006-3.006 3.006-1.661 0-3.006-1.347-3.006-3.006" fill="#191009"/>
    </g>
    <g transform="translate(413.57 205.22)">
     <path d="m0 0c0-0.39 0.315-0.706 0.704-0.706 0.391 0 0.705 0.316 0.705 0.706s-0.314 0.705-0.705 0.705c-0.389 0-0.704-0.315-0.704-0.705" fill="#fff"/>
    </g>
    <g transform="translate(393.65 199.55)">
     <path d="m0 0c-1.798-5.06-9.352-5.317-10.848-5.317-0.3 0-0.586 9e-3 -0.854 0.023-6.705 0.348-11.503 4.67-15.56 14.017-0.847 1.95-0.97 3.407-0.369 4.325 0.8 1.218 3.015 1.836 6.587 1.836 2.761 0 5.833-0.364 8.544-0.686 0.653-0.078 1.281-0.152 1.874-0.218 6.637-0.735 10.522-2.142 11.875-4.301 1.397-2.231 0.194-5.614-1.197-9.533zm13.213 0-0.05 0.146c-0.806 2.266-1.545 4.351-1.756 6.14l0.032 0.034c-0.013 0.012-0.026 0.022-0.04 0.034-0.143 1.276-0.014 2.401 0.564 3.325 1.354 2.159 5.239 3.566 11.877 4.301 0.592 0.066 1.22 0.14 1.873 0.218 2.71 0.322 5.784 0.686 8.544 0.686 3.571 0 5.786-0.618 6.587-1.836 0.602-0.918 0.477-2.375-0.369-4.325-4.057-9.347-8.855-13.669-15.56-14.017-0.267-0.014-0.554-0.023-0.854-0.023-1.497 0-9.051 0.257-10.848 5.317m29.62 14.354c-0.376 0.573-0.875 1.054-1.499 1.454-1.533 0.984-3.841 1.456-7.077 1.456-2.902 0-6.049-0.373-8.824-0.702-0.645-0.077-1.268-0.151-1.854-0.215-7.616-0.844-11.819-2.51-13.632-5.405-0.604-0.963-0.896-1.988-0.974-3.072-1.702 0.602-3.377 0.338-4.719-0.224-0.051 1.167-0.343 2.267-0.988 3.296-1.813 2.895-6.017 4.561-13.632 5.405-0.585 0.064-1.207 0.138-1.853 0.215-2.777 0.329-5.924 0.702-8.825 0.702-0.649 0-1.257-0.021-1.833-0.06-3.459-0.228-5.625-1.148-6.743-2.85-0.619-0.945-0.848-2.09-0.713-3.414 0.101-0.961 0.388-2.013 0.888-3.165 4.402-10.143 10.001-15.051 17.62-15.446 0.306-0.016 0.634-0.025 0.977-0.025 5.144 0 11.285 1.813 13.091 6.9l0.05 0.145c0.683 1.92 1.323 3.726 1.679 5.417 0.251 0.186 0.678 0.465 1.224 0.694 0.897 0.377 2.104 0.596 3.361 0 0.206-0.096 0.41-0.212 0.617-0.356 0.338-1.788 1.018-3.708 1.744-5.755l0.051-0.145c1.809-5.087 7.949-6.9 13.092-6.9 0.344 0 0.67 9e-3 0.977 0.025 7.62 0.395 13.218 5.303 17.621 15.446 0.492 1.132 0.777 2.17 0.881 3.121 0.148 1.341-0.081 2.501-0.707 3.458" fill="#26232c"/>
    </g>
   </g>
  </g>
 </g>
</svg>
