<?xml version="1.0" encoding="UTF-8"?>
<!-- Created with Inkscape (http://www.inkscape.org/) -->
<svg width="59.972mm" height="59.973mm" version="1.1" viewBox="0 0 59.972 59.973" xmlns="http://www.w3.org/2000/svg" xmlns:cc="http://creativecommons.org/ns#" xmlns:dc="http://purl.org/dc/elements/1.1/" xmlns:rdf="http://www.w3.org/1999/02/22-rdf-syntax-ns#">
 <defs>
  <clipPath id="clipPath4719">
   <path d="m315 426.15c0-46.945 38.055-85.001 85-85.001s85.001 38.056 85.001 85.001c0 46.944-38.056 85.001-85.001 85.001s-85-38.057-85-85.001"/>
  </clipPath>
 </defs>
 <metadata>
  <rdf:RDF>
   <cc:Work rdf:about="">
    <dc:format>image/svg+xml</dc:format>
    <dc:type rdf:resource="http://purl.org/dc/dcmitype/StillImage"/>
    <dc:title/>
   </cc:Work>
  </rdf:RDF>
 </metadata>
 <g transform="translate(-4.0883 -64.227)">
  <g transform="matrix(.35278 0 0 -.35278 64.061 94.213)">
   <path d="m0 0c0 46.943-38.057 85-85.001 85-46.945 0-84.999-38.057-84.999-85 0-46.945 38.054-85.002 84.999-85.002 46.944 0 85.001 38.057 85.001 85.002" fill="#dd5877"/>
  </g>
  <g transform="matrix(.35278 0 0 -.35278 -107.04 244.55)">
   <g clip-path="url(#clipPath4719)">
    <g transform="translate(445.65 397.12)">
     <path d="m0 0c0 33.11-21.08 59.951-47.084 59.951-26.006 0-47.086-26.841-47.086-59.951 0-33.107 21.08-59.95 47.086-59.95 26.004 0 47.084 26.843 47.084 59.95" fill="#f7eada"/>
    </g>
    <g transform="translate(429.04 438.59)">
     <path d="m0 0c0 15.937-26.002 18.734-26.002 18.734h-8.95s-26.004-2.797-26.004-18.734c0-15.938-0.28-34.953 7.55-48.931 7.828-13.98 6.709-33.551 22.928-34.671 16.217 1.12 15.1 20.691 22.928 34.671 7.828 13.978 7.55 32.993 7.55 48.931" fill="#a7654f"/>
    </g>
    <g transform="translate(417.61 466.31)">
     <path d="m0 0s21.873 4.985 20.193 21.762c7.271-14.819-3.634-26.283-12.861-32.992" fill="#fff"/>
    </g>
    <g transform="translate(379.37 466.31)">
     <path d="m0 0s-21.871 4.985-20.194 21.762c-7.27-14.819 3.633-26.283 12.862-32.992" fill="#fff"/>
    </g>
    <g transform="translate(422.3 450.28)">
     <path d="m0 0s11.042 13.84 28.798 10.065c-2.237-9.089-8.109-17.477-22.369-20.831" fill="#a7654f"/>
    </g>
    <g transform="translate(425.11 446.87)">
     <path d="m0 0s11.398 10.104 20.532 8.16c-1.148-4.676-10.323-13.049-17.662-14.775" fill="#f7eada"/>
    </g>
    <g transform="translate(374.56 450.28)">
     <path d="m0 0s-11.042 13.84-28.799 10.065c2.236-9.089 8.108-17.477 22.37-20.831" fill="#a7654f"/>
    </g>
    <g transform="translate(371.74 446.87)">
     <path d="m0 0s-11.398 10.104-20.532 8.16c1.149-4.676 10.324-13.049 17.662-14.775" fill="#f7eada"/>
    </g>
    <g transform="translate(406.95 401.26)">
     <path d="m0 0c0 13.981 0.42 27.263 12.164 38.797 11.743 11.534 8.25 20.341 1.399 26.422-6.85 6.082-16.917 5.034-21.95 5.034-5.032 0-15.1 1.048-21.95-5.034-6.852-6.081-10.345-14.888 1.399-26.422 11.743-11.534 12.164-24.816 12.164-38.797 0-10.798-6.99-17.055-11.324-21.949-4.335-4.893-1.891-14.536 3.143-14.536h33.134c5.034 0 7.477 9.643 3.144 14.536-4.334 4.894-11.323 11.151-11.323 21.949" fill="#fff"/>
    </g>
    <g transform="translate(425.29 429.37)">
     <path d="m0 0s-12.372 3.586-12.092-8.994c0 0 12.092-4.391 12.092 8.994" fill="#fff"/>
    </g>
    <g transform="translate(415.18 425.47)">
     <path d="M 0,0 C 0,-1.657 1.344,-3.001 3.001,-3.001 4.656,-3.001 6,-1.657 6,0 6,1.657 4.656,3 3.001,3 1.344,3 0,1.657 0,0" fill="#191009"/>
    </g>
    <g transform="translate(416.77 425.75)">
     <path d="m0 0c0-0.389 0.313-0.705 0.701-0.705 0.39 0 0.703 0.316 0.703 0.705s-0.313 0.704-0.703 0.704c-0.388 0-0.701-0.315-0.701-0.704" fill="#fff"/>
    </g>
    <g transform="translate(371.38 429.37)">
     <path d="m0 0s12.373 3.586 12.094-8.994c0 0-12.094-4.391-12.094 8.994" fill="#fff"/>
    </g>
    <g transform="translate(381.49 425.47)">
     <path d="m0 0c0-1.657-1.342-3.001-3-3.001s-3.001 1.344-3.001 3.001 1.343 3 3.001 3 3-1.343 3-3" fill="#191009"/>
    </g>
    <g transform="translate(379.89 425.75)">
     <path d="m0 0c0-0.389-0.315-0.705-0.703-0.705-0.389 0-0.703 0.316-0.703 0.705s0.314 0.704 0.703 0.704c0.388 0 0.703-0.315 0.703-0.704" fill="#fff"/>
    </g>
    <g transform="translate(398 365.02)">
     <path d="m0 0s-5.502 2.622-10.744 0c-5.24-2.621-10.091-7.209-13.107-0.916 0 0-0.13-9.831 11.93-8.649 12.054 1.179 12.446 7.994 11.921 9.565" fill="#26232c"/>
    </g>
    <g transform="translate(398.27 365.02)">
     <path d="m0 0s5.503 2.622 10.745 0c5.241-2.621 10.09-7.209 13.107-0.916 0 0 0.13-9.831-11.929-8.649-12.055 1.179-12.45 7.994-11.923 9.565" fill="#26232c"/>
    </g>
   </g>
  </g>
 </g>
</svg>
