<?xml version="1.0" encoding="UTF-8"?>
<!-- Created with Inkscape (http://www.inkscape.org/) -->
<svg width="77.302mm" height="59.973mm" version="1.1" viewBox="0 0 77.302 59.973" xmlns="http://www.w3.org/2000/svg" xmlns:cc="http://creativecommons.org/ns#" xmlns:dc="http://purl.org/dc/elements/1.1/" xmlns:rdf="http://www.w3.org/1999/02/22-rdf-syntax-ns#">
 <defs>
  <clipPath id="clipPath4047">
   <path d="m0 800h800v-800h-800z"/>
  </clipPath>
 </defs>
 <metadata>
  <rdf:RDF>
   <cc:Work rdf:about="">
    <dc:format>image/svg+xml</dc:format>
    <dc:type rdf:resource="http://purl.org/dc/dcmitype/StillImage"/>
    <dc:title/>
   </cc:Work>
  </rdf:RDF>
 </metadata>
 <g transform="translate(-64.914 -8.4778)">
  <path d="m132.11 38.464c0-16.56-13.425-29.986-29.986-29.986-16.561 0-29.986 13.426-29.986 29.986 0 16.561 13.425 29.987 29.986 29.987 16.561 0 29.986-13.426 29.986-29.987" fill="#8dd0c7"/>
  <g transform="matrix(.35278 0 0 -.35278 -126.62 266.6)">
   <g transform="translate(687.58 561.68)">
    <path d="m0 0c0.409 2.833 0.631 15.688 0.631 18.677 0 25.862-16.018 46.825-35.778 46.825-19.758 0-35.777-20.963-35.777-46.825 0-2.989 0.224-15.844 0.633-18.677z" fill="#d39c5b"/>
   </g>
   <g transform="translate(635.66 615)">
    <path d="m0 0s-10.201-23.393-4.069-32.337c6.132-8.945 20.581-20.985 20.581-20.985s22.704 15.137 23.048 26.661c0.343 11.524-6.537 30.1-6.537 30.1" fill="#e2c59b"/>
   </g>
   <g transform="translate(630.53 618.27)">
    <path d="m0 0c7.225-5.503 7.396-8.772 8.372-17.889 2.181-17.2 9.518-16.684 13.531-16.684v32.509s-18.119 14.449-26.83 19.933c-0.971-4.011-2.297-12.365 4.927-17.869" fill="#be7447"/>
   </g>
   <g transform="translate(679.26 636.14)">
    <path d="m0 0c-8.71-5.484-26.83-19.933-26.83-19.933v-32.508c4.016 0 11.353-0.517 13.533 16.684 0.975 9.116 1.147 12.385 8.37 17.888 7.224 5.505 5.901 13.859 4.927 17.869" fill="#be7447"/>
   </g>
   <g transform="translate(672.61 661)">
    <path d="m0 0s13.028 11.719 28.941 4.724c-3.855-8.612-10.982-15.865-24.999-16.586" fill="#be7447"/>
   </g>
   <g transform="translate(673.7 657.08)">
    <path d="m0 0s13.527 7.96 21.713 4.36c-1.983-4.429-12.202-11.063-19.416-11.436" fill="#191009"/>
   </g>
   <g transform="translate(631.67 661.75)">
    <path d="m0 0s-13.03 11.719-28.942 4.725c3.856-8.613 10.983-15.865 25.002-16.587" fill="#be7447"/>
   </g>
   <g transform="translate(630.58 657.84)">
    <path d="m0 0s-13.527 7.96-21.713 4.36c1.982-4.428 12.203-11.063 19.417-11.437" fill="#191009"/>
   </g>
   <g transform="translate(676.74 663.39)">
    <path d="m0 0-7.339 3.668-16.97-6.879-16.97 6.879-7.339-3.668s0.461-18.578-2.751-27.98c7.567-2.292 15.823-16.743 20.181-31.649h13.759c4.359 14.906 12.614 29.357 20.181 31.649-3.211 9.402-2.752 27.98-2.752 27.98" fill="#d39c5b"/>
   </g>
   <g transform="translate(655.67 605.72)">
    <path d="m0 0c3.941 0 5.176-2.54 2.741-5.641l-1.557-1.986c-2.436-3.103-6.417-3.103-8.853 0l-1.556 1.986c-2.435 3.101-1.201 5.641 2.741 5.641z" fill="#191009"/>
   </g>
   <g transform="translate(678.41 631.62)">
    <path d="m0 0s-11.921 3.458-11.652-8.667c0 0 11.652-4.231 11.652 8.667" fill="#fff"/>
   </g>
   <g transform="translate(668.67 627.86)">
    <path d="m0 0c0-1.595 1.292-2.891 2.889-2.891 1.595 0 2.891 1.296 2.891 2.891 0 1.598-1.296 2.893-2.891 2.893-1.597 0-2.889-1.295-2.889-2.893" fill="#191009"/>
   </g>
   <g transform="translate(670.2 628.13)">
    <path d="m0 0c0-0.375 0.301-0.679 0.675-0.679 0.375 0 0.678 0.304 0.678 0.679s-0.303 0.68-0.678 0.68c-0.374 0-0.675-0.305-0.675-0.68" fill="#fff"/>
   </g>
   <g transform="translate(626.46 631.62)">
    <path d="m0 0s11.922 3.458 11.653-8.667c0 0-11.653-4.231-11.653 8.667" fill="#fff"/>
   </g>
   <g transform="translate(636.2 627.86)">
    <path d="m0 0c0-1.595-1.295-2.891-2.893-2.891-1.596 0-2.89 1.296-2.89 2.891 0 1.598 1.294 2.893 2.89 2.893 1.598 0 2.893-1.295 2.893-2.893" fill="#191009"/>
   </g>
   <g transform="translate(634.66 628.13)">
    <path d="m0 0c0-0.375-0.302-0.679-0.678-0.679-0.372 0-0.677 0.304-0.677 0.679s0.305 0.68 0.677 0.68c0.376 0 0.678-0.305 0.678-0.68" fill="#fff"/>
   </g>
   <g transform="translate(667.37 581.16)">
    <path d="m0 0c-2.066 0.685-12.361-5.234-12.361-5.234-0.628 0.671-1.537 1.096-2.551 1.096-1.015 0-1.922-0.425-2.55-1.096 0 0-10.313 6.244-12.274 5.092-1.961-1.151-2.032-13.355 0-14.559 2.031-1.203 12.465 4.902 12.465 4.902 0.615-0.559 1.445-0.906 2.359-0.906 0.915 0 1.743 0.347 2.357 0.905 0 0 10.781-6.331 12.466-4.901 1.686 1.431 2.156 14.016 0.089 14.701"/>
   </g>
   <g transform="translate(652.43 595.73)">
    <path d="m0 0s-4.521 0.572-5.885-2.65c-1.364-3.223-4.819-6.665-6.94-5.453-3.046 1.74-1.736 5.452 1.116 6.32-1.984 1.982-7.436-2.999-3.282-6.921 4.349-4.11 12.885 0.23 14.991 4.752z" fill="#191009"/>
   </g>
   <g transform="translate(652.43 595.73)">
    <path d="m0 0s4.523 0.572 5.887-2.65c1.365-3.223 4.818-6.665 6.94-5.453 3.046 1.74 1.736 5.452-1.115 6.32 1.981 1.982 7.435-2.999 3.283-6.921-4.351-4.11-12.886 0.23-14.995 4.752z" fill="#191009"/>
   </g>
   <g transform="translate(633.86 614.36)">
    <path d="m0 0c-5.979 0-10.828 4.849-10.828 10.828s4.849 10.827 10.828 10.827 10.828-4.848 10.828-10.827-4.849-10.828-10.828-10.828m0 23.848c-7.19 0-13.021-5.829-13.021-13.02s5.831-13.02 13.021-13.02c7.191 0 13.021 5.829 13.021 13.02s-5.83 13.02-13.021 13.02"/>
   </g>
   <path d="m616.46 626.49h6.372v-2.604h-6.372z"/>
   <path d="m618.86 573.24h-2.4v51.944h2.4z"/>
  </g>
  <g transform="matrix(.35278 0 0 -.35278 -126.62 266.6)">
   <g clip-path="url(#clipPath4047)">
    <g transform="translate(676.2 661.4)">
     <path d="m0 0s3.938 13.878 10.263 15.971c6.324 2.09 14.529 2.091 28.025 0.747 13.496-1.345 32.203 4.51 42.656 21.238 10.457 16.727 1.391 10.829-1.333 6.132-2.724-4.695-15.693-18.343-26.323-20.597-10.63-2.255-21.814-0.726-22.973 3.62-1.16 4.346 13.415 23.62 20.05 27.561 6.638 3.942 8.085 11.216-1.021 3.882-9.11-7.336-17.879-16.881-27.124-33.094-3.812-1.83-12.75-4.291-16.368-1.966-3.621 2.324 0.936 24.013 8.4 31.525s14.232 11.662 20.809 10.952c6.579-0.709 5.451 5.288-3.067 3.436-8.517-1.853-27.414-1.399-33.173-32.02-1.507-8.005 0.82-20.161 0.82-20.161l-6.9-12.563z" fill="#d39c5b"/>
    </g>
    <g transform="translate(628.79 661.29)">
     <path d="m0 0s-3.938 13.879-10.264 15.971c-6.323 2.09-14.529 2.092-28.024 0.747-13.496-1.345-32.203 4.511-42.657 21.239-10.456 16.726-1.39 10.828 1.334 6.131 2.723-4.694 15.692-18.341 26.323-20.597 10.63-2.255 21.814-0.725 22.975 3.62 1.158 4.347-13.418 23.621-20.053 27.562-6.636 3.941-8.085 11.216 1.021 3.881 9.111-7.335 17.879-16.88 27.124-33.093 3.813-1.83 12.75-4.292 16.369-1.967 3.621 2.325-0.936 24.014-8.4 31.526-7.463 7.512-14.232 11.662-20.809 10.952-6.579-0.71-5.451 5.289 3.067 3.436 8.516-1.854 27.414-1.399 33.172-32.021 1.508-8.005-0.82-20.161-0.82-20.161l6.901-12.563z" fill="#d39c5b"/>
    </g>
   </g>
  </g>
 </g>
</svg>
