<?xml version="1.0" encoding="UTF-8"?>
<!-- Created with Inkscape (http://www.inkscape.org/) -->
<svg width="59.972mm" height="59.973mm" version="1.1" viewBox="0 0 59.972 59.973" xmlns="http://www.w3.org/2000/svg" xmlns:cc="http://creativecommons.org/ns#" xmlns:dc="http://purl.org/dc/elements/1.1/" xmlns:rdf="http://www.w3.org/1999/02/22-rdf-syntax-ns#">
 <defs>
  <clipPath id="clipPath4063">
   <path d="m315 646.68c0-46.945 38.055-85.002 85-85.002s85.001 38.057 85.001 85.002c0 46.943-38.056 85-85.001 85s-85-38.057-85-85"/>
  </clipPath>
  <clipPath id="clipPath4195">
   <path d="m372.24 647.34h11.044v-27.809h-11.044z"/>
  </clipPath>
  <clipPath id="clipPath4199">
   <path d="m372.24 619.54h11.044v27.809h-11.044z"/>
  </clipPath>
  <clipPath id="clipPath4219">
   <path d="m412.06 649.34h11.4v-29.406h-11.4z"/>
  </clipPath>
  <clipPath id="clipPath4223">
   <path d="m412.06 619.94h11.399v29.407h-11.399z"/>
  </clipPath>
  <clipPath id="clipPath4243">
   <path d="m367.74 645.61h9.38v-25.461h-9.38z"/>
  </clipPath>
  <clipPath id="clipPath4247">
   <path d="m367.74 620.15h9.38v25.461h-9.38z"/>
  </clipPath>
  <clipPath id="clipPath4267">
   <path d="m405.75 648.88h10.91v-26.944h-10.91z"/>
  </clipPath>
  <clipPath id="clipPath4271">
   <path d="m405.75 621.93h10.91v26.944h-10.91z"/>
  </clipPath>
 </defs>
 <metadata>
  <rdf:RDF>
   <cc:Work rdf:about="">
    <dc:format>image/svg+xml</dc:format>
    <dc:type rdf:resource="http://purl.org/dc/dcmitype/StillImage"/>
    <dc:title/>
   </cc:Work>
  </rdf:RDF>
 </metadata>
 <g transform="translate(-73.95 -8.7974)">
  <path d="m133.92 38.783c0-16.56-13.426-29.986-29.986-29.986-16.561 0-29.986 13.426-29.986 29.986 0 16.561 13.425 29.987 29.986 29.987 16.561 0 29.986-13.426 29.986-29.987" fill="#0a6e90"/>
  <g transform="matrix(.35278 0 0 -.35278 -37.175 266.92)">
   <g clip-path="url(#clipPath4063)">
    <g transform="translate(402.86 615.24)">
     <path d="m0 0c-21.92 0-39.693-23.978-39.693-53.556h79.388c0 29.578-17.772 53.556-39.695 53.556" fill="#f25a28"/>
    </g>
    <g transform="translate(392.28 599.94)">
     <path d="M 0,0 C 3.156,-6.583 12.705,-13.912 20.717,0 20.23,5.995 14.35,7.505 10.574,7.505 3.296,7.505 0,0 0,0" fill="#f5fefb"/>
    </g>
    <g transform="translate(451.6 619.55)">
     <path d="M 0,0 C -0.593,0.429 -1.364,0.846 -2.275,1.228 -2.033,1.077 -1.81,0.944 -1.598,0.823 -1.01,0.565 -0.475,0.29 0,0" fill="#f6f3cf"/>
    </g>
    <g transform="translate(451.6 619.55)">
     <path d="M 0,0 C -0.475,0.29 -1.01,0.565 -1.598,0.823 -0.633,0.268 0,0 0,0" fill="#f6f3cf"/>
    </g>
    <g transform="translate(356.33 620.78)">
     <path d="m0 0c-0.913-0.382-1.684-0.799-2.278-1.228 0.474 0.29 1.009 0.565 1.598 0.823 0.212 0.121 0.437 0.254 0.68 0.405" fill="#f6f3cf"/>
    </g>
    <g transform="translate(354.05 619.55)">
     <path d="M 0,0 C 0,0 0.632,0.268 1.598,0.823 1.01,0.565 0.475,0.29 0,0" fill="#f6f3cf"/>
    </g>
    <g transform="translate(417.41 663.8)">
     <path d="m0 0c7.529 30.524 32.354 41.209 32.354 41.209s17.745-46.326-16.177-57.37z" fill="#251f21"/>
    </g>
    <g transform="translate(421.03 660.99)">
     <path d="m0 0c9.696 28.995 25.225 34.052 25.225 34.052s13.421-27.688-16.063-44.576z" fill="#f25a28"/>
    </g>
    <g transform="translate(388.21 663.8)">
     <path d="m0 0c-7.529 30.524-32.354 41.209-32.354 41.209s-17.745-46.326 16.174-57.37z" fill="#251f21"/>
    </g>
    <g transform="translate(384.58 660.99)">
     <path d="m0 0c-9.696 28.995-25.227 34.052-25.227 34.052s-13.419-27.688 16.065-44.576z" fill="#f25a28"/>
    </g>
    <g transform="translate(412.99 599.94)">
     <path d="m0 0c-0.951 2.348-2.704 4.258-4.904 5.478 1.814 2.942 7.868 10.753 21.481 15.293 10.054 3.352 18.687 1.239 22.01-1.157 0 0-10.153-12.949-38.587-19.614" fill="#f5fefb"/>
    </g>
    <g transform="translate(392.62 599.94)">
     <path d="m0 0c0.953 2.348 2.704 4.258 4.904 5.478-1.813 2.942-7.868 10.753-21.48 15.293-10.056 3.352-18.688 1.239-22.011-1.157 0 0 10.154-12.949 38.587-19.614" fill="#f5fefb"/>
    </g>
    <g transform="translate(440.04 632.92)">
     <path d="m0 0c0.021 0.479 0.074 0.95 0.074 1.436 0 20.601-16.68 37.305-37.275 37.345v2e-3c-0.014 0-0.026-1e-3 -0.035-1e-3 -0.014 0-0.026 1e-3 -0.036 1e-3v-2e-3c-20.594-0.04-37.277-16.744-37.277-37.345 0-0.486 0.054-0.957 0.074-1.436-1.731-7.05-7.202-10.977-9.941-12.548 4.262 1.859 11.398 2.675 20.416 0.336 10.458-2.714 19.667-11.474 21.479-15.293 1.573 0.873 3.36 1.412 5.285 1.42 1.924-8e-3 3.71-0.547 5.282-1.42 1.814 3.819 11.021 12.579 21.481 15.293 9.016 2.339 16.152 1.523 20.411-0.335-2.737 1.571-8.207 5.498-9.938 12.547" fill="#f25a28"/>
    </g>
    <g transform="translate(449.98 620.37)">
     <path d="m0 0c0.966-0.554 1.599-0.822 1.599-0.822-0.476 0.29-1.01 0.566-1.599 0.822" fill="#f25a28"/>
    </g>
    <g transform="translate(355.63 620.37)">
     <path d="m0 0c-0.586-0.256-1.121-0.531-1.596-0.821 0 0 0.631 0.267 1.596 0.821" fill="#f25a28"/>
    </g>
    <g transform="translate(402.79 671.7)">
     <path d="m0 0v-2e-3c0.014 0 0.023 2e-3 0.037 2e-3z" fill="#e96332"/>
    </g>
    <g transform="translate(397.53 605.44)">
     <path d="m0 0c-1e-3 -1e-3 -1e-3 -1e-3 -1e-3 -2e-3 4e-3 -8e-3 0.011-0.019 0.015-0.027-2e-3 9e-3 -0.011 0.019-0.014 0.029" fill="#07171b"/>
    </g>
    <g transform="translate(402.86 671.7)">
     <path d="m0 0h-0.035c0.012 0 0.023-2e-3 0.035-2e-3z" fill="#a84720"/>
    </g>
    <g transform="translate(402.86 639.08)">
     <path d="m0 0v32.62c-0.012 0-0.023 2e-3 -0.035 2e-3 -0.014 0-0.024-2e-3 -0.037-2e-3v-32.626c0.023 0 0.049 6e-3 0.072 6e-3" fill="#a84720"/>
    </g>
    <g transform="translate(402.79 606.84)">
     <path d="m0 0c0.014 0 0.023-2e-3 0.037-2e-3 0.012 0 0.024 2e-3 0.035 2e-3v32.244c-0.023 0-0.049-6e-3 -0.072-6e-3v-12.312z" fill="#a84720"/>
    </g>
    <g transform="translate(397.53 605.44)">
     <path d="m0 0c3e-3 -0.01 0.012-0.02 0.014-0.029 1.565 0.866 3.336 1.403 5.249 1.418v4e-3c-1.918 0-3.694-0.534-5.263-1.393" fill="#a84720"/>
    </g>
    <g transform="translate(402.79 606.84)">
     <path d="m0 0v-4e-3c0.014 0 0.023 2e-3 0.037 2e-3 -0.014 0-0.023 2e-3 -0.037 2e-3" fill="#a84720"/>
    </g>
    <g transform="translate(405.82 612.78)">
     <path d="m0 0c3.709 0 4.87-2.39 2.578-5.307l-1.465-1.869c-2.29-2.92-6.039-2.92-8.328 0l-1.466 1.869c-2.29 2.917-1.128 5.307 2.579 5.307z" fill="#191009"/>
    </g>
    <g transform="translate(391.4 600.53)">
     <path d="m0 0s6.428-2.015 11.226 2.878c4.221-3.358 6.908-4.344 11.513-1.644-4.701-5.168-10.015-3.563-11.648-3.179-3.645-0.96-10.131-0.742-11.091 1.945" fill="#191009"/>
    </g>
    <g transform="translate(381.35 639.93)">
     <path d="m0 0s12.398 3.594 12.119-9.012c0 0-12.119-4.401-12.119 9.012" fill="#fff"/>
    </g>
    <g transform="translate(391.21 636.02)">
     <path d="m0 0c0-1.661-1.343-3.007-3.006-3.007-1.659 0-3.004 1.346-3.004 3.007 0 1.66 1.345 3.006 3.004 3.006 1.663 0 3.006-1.346 3.006-3.006" fill="#191009"/>
    </g>
    <g transform="translate(390.2 637.16)">
     <path d="m0 0c0-0.39-0.315-0.706-0.704-0.706-0.391 0-0.705 0.316-0.705 0.706s0.314 0.706 0.705 0.706c0.389 0 0.704-0.316 0.704-0.706" fill="#fff"/>
    </g>
    <g transform="translate(423.92 639.93)">
     <path d="m0 0s-12.397 3.594-12.118-9.012c0 0 12.118-4.401 12.118 9.012" fill="#fff"/>
    </g>
    <g transform="translate(413.79 636.02)">
     <path d="m0 0c0-1.661 1.346-3.007 3.008-3.007 1.66 0 3.006 1.346 3.006 3.007 0 1.66-1.346 3.006-3.006 3.006-1.662 0-3.008-1.346-3.008-3.006" fill="#191009"/>
    </g>
    <g transform="translate(414.69 637.43)">
     <path d="m0 0c0-0.39 0.316-0.706 0.705-0.706 0.391 0 0.704 0.316 0.704 0.706 0 0.389-0.313 0.706-0.704 0.706-0.389 0-0.705-0.317-0.705-0.706" fill="#fff"/>
    </g>
    <g transform="translate(417.57 593.19)">
     <path d="m0 0c-2.064 0.685-12.361-5.234-12.361-5.234-0.628 0.671-1.535 1.095-2.55 1.095-1.016 0-1.922-0.424-2.549-1.095 0 0-10.313 6.244-12.274 5.092-1.962-1.151-2.034-13.355 0-14.559 2.029-1.203 12.466 4.902 12.466 4.902 0.612-0.56 1.442-0.906 2.357-0.906 0.914 0 1.744 0.346 2.356 0.905 0 0 10.783-6.331 12.466-4.901 1.686 1.432 2.157 14.016 0.089 14.701"/>
    </g>
    <g clip-path="url(#clipPath4195)" opacity=".5">
     <g clip-path="url(#clipPath4199)">
      <g transform="translate(372.24 646.24)">
       <path d="m0 0 7.761-26.569 3.283-0.134-8.382 27.809z" fill="#e6e6e6"/>
      </g>
     </g>
    </g>
    <g clip-path="url(#clipPath4219)" opacity=".5">
     <g clip-path="url(#clipPath4223)">
      <g transform="translate(412.06 649.07)">
       <path d="m0 0 8.297-28.962 3.102-0.177-8.381 29.407z" fill="#e6e6e6"/>
      </g>
     </g>
    </g>
    <g clip-path="url(#clipPath4243)" opacity=".5">
     <g clip-path="url(#clipPath4247)">
      <g transform="translate(369.44 645.61)">
       <path d="m0 0-6e-3 -1e-3c0.065-1.209-0.8-2.073-1.372-3.189-0.093-0.18-0.206-0.317-0.329-0.429v-1.458l5.075-18.208c1.078-0.497 1.163-0.897 2.261-1.377 0.671-0.293 1.361-0.543 2.045-0.799z" fill="#e6e6e6"/>
      </g>
     </g>
    </g>
    <g clip-path="url(#clipPath4267)" opacity=".5">
     <g clip-path="url(#clipPath4271)">
      <g transform="translate(405.75 647.88)">
       <path d="m0 0 7.916-24.349 2.994-1.596-7.785 26.944z" fill="#e6e6e6"/>
      </g>
     </g>
    </g>
    <g transform="translate(432.66 623.22)">
     <path d="m0 0c-2.352-2.794-7.429-3.162-10.836-2.721-5.943 1.291-7.477 3.604-9.832 6.179-2.353 2.573-4.413 7.943-5.004 10.592-0.59 2.647-0.513 7.354 0 8.752 0.516 1.397 2.651 2.427 9.048 2.87 6.399 0.44 12.286-0.589 15.963-2.134 3.679-1.545 5.074-6.326 5.074-6.326s0.297-1.545 0.297-5.764c0-4.22-2.355-8.653-4.71-11.448m-33.925 14.05c-0.593-2.649-2.651-8.019-5.006-10.592-2.353-2.575-3.889-4.888-9.833-6.179-3.406-0.441-8.483-0.073-10.835 2.721-2.355 2.795-4.707 7.228-4.707 11.448 0 4.219 0.293 5.764 0.293 5.764s1.398 4.781 5.075 6.326c3.679 1.545 9.563 2.574 15.963 2.134 6.399-0.443 8.532-1.473 9.05-2.87 0.512-1.398 0.587-6.105 0-8.752m41.611 1.324c-0.257 0.33-0.698 0.257-0.919 1.066-0.219 0.809-2.279 6.289-4.561 7.54-2.279 1.249-6.643 3.383-17.234 4.119-8.194 0.203-13.15 0.374-14.562 0.426v0.015s-0.071-2e-3 -0.208-8e-3c-0.14 6e-3 -0.212 8e-3 -0.212 8e-3v-0.015c-1.412-0.052-6.369-0.223-14.559-0.426-10.592-0.736-14.958-2.87-17.237-4.119-2.281-1.251-4.341-6.731-4.56-7.54-0.221-0.809-0.663-0.736-0.919-1.066-0.259-0.331 0.037-2.279 0.845-3.532 0.882-7.024 3.825-11.032 5.663-13.165 1.839-2.135 6.916-3.164 10.446-3.017 7.796 1.324 9.12 3.679 12.505 6.989 3.383 3.309 6.057 12.356 6.449 13.387 0.297 0.78 1.172 1.053 1.579 1.139 0.403-0.086 1.278-0.359 1.575-1.139 0.395-1.031 3.067-10.078 6.45-13.387 3.384-3.31 4.709-5.665 12.506-6.989 3.531-0.147 8.606 0.882 10.446 3.017 1.839 2.133 4.778 6.141 5.663 13.165 0.809 1.253 1.101 3.201 0.844 3.532" fill="#351905"/>
    </g>
   </g>
  </g>
 </g>
</svg>
