<?xml version="1.0" encoding="UTF-8"?>
<!-- Created with Inkscape (http://www.inkscape.org/) -->
<svg width="59.972mm" height="59.973mm" version="1.1" viewBox="0 0 59.972 59.973" xmlns="http://www.w3.org/2000/svg" xmlns:cc="http://creativecommons.org/ns#" xmlns:dc="http://purl.org/dc/elements/1.1/" xmlns:rdf="http://www.w3.org/1999/02/22-rdf-syntax-ns#">
 <defs>
  <clipPath id="clipPath4483">
   <path d="m67.188 204.58c0-46.946 38.054-85.002 84.998-85.002 46.946 0 85.002 38.056 85.002 85.002 0 46.943-38.056 85-85.002 85-46.944 0-84.998-38.057-84.998-85"/>
  </clipPath>
 </defs>
 <metadata>
  <rdf:RDF>
   <cc:Work rdf:about="">
    <dc:format>image/svg+xml</dc:format>
    <dc:type rdf:resource="http://purl.org/dc/dcmitype/StillImage"/>
    <dc:title/>
   </cc:Work>
  </rdf:RDF>
 </metadata>
 <g transform="translate(-15.21 -174.77)">
  <g transform="matrix(.35278 0 0 -.35278 75.182 204.76)">
   <path d="m0 0c0 46.943-38.056 85-85.001 85-46.944 0-84.999-38.057-84.999-85 0-46.945 38.055-85.002 84.999-85.002 46.945 0 85.001 38.057 85.001 85.002" fill="#61bbc4"/>
  </g>
  <g transform="matrix(.35278 0 0 -.35278 -8.4921 276.93)">
   <g clip-path="url(#clipPath4483)">
    <g transform="translate(152.14 173.14)">
     <path d="m0 0c-28.118 0-50.915-23.977-50.915-53.557h101.83c0 29.58-22.794 53.557-50.915 53.557" fill="#a95d21"/>
    </g>
    <g transform="translate(222.07 219.69)">
     <path d="m0 0c0-9.477-7.685-17.162-17.165-17.162-9.481 0-17.162 7.685-17.162 17.162 0 9.479 7.681 17.164 17.162 17.164 9.48 0 17.165-7.685 17.165-17.164" fill="#a95d21"/>
    </g>
    <g transform="translate(216.09 219.69)">
     <path d="m0 0c0-6.176-5.009-11.184-11.184-11.184-6.174 0-11.186 5.008-11.186 11.184 0 6.18 5.012 11.186 11.186 11.186 6.175 0 11.184-5.006 11.184-11.186" fill="#f5c799"/>
    </g>
    <g transform="translate(116.63 219.69)">
     <path d="m0 0c0-9.477-7.685-17.162-17.164-17.162-9.482 0-17.163 7.685-17.163 17.162 0 9.479 7.681 17.164 17.163 17.164 9.479 0 17.164-7.685 17.164-17.164" fill="#a95d21"/>
    </g>
    <g transform="translate(110.65 219.69)">
     <path d="m0 0c0-6.176-5.009-11.184-11.183-11.184-6.176 0-11.186 5.008-11.186 11.184 0 6.18 5.01 11.186 11.186 11.186 6.174 0 11.183-5.006 11.183-11.186" fill="#f5c799"/>
    </g>
    <g transform="translate(152.14 259.72)">
     <path d="m0 0c-26.683 0-48.315-21.631-48.315-48.314 0-26.684 21.632-48.315 48.315-48.315 26.685 0 48.314 21.631 48.314 48.315 0 26.683-21.629 48.314-48.314 48.314" fill="#a95d21"/>
    </g>
    <g transform="translate(194.76 214.98)">
     <path d="m0 0c0 11.961-9.698 21.656-21.659 21.656-10.103 0-18.563-6.927-20.959-16.283-2.393 9.356-10.855 16.283-20.958 16.283-11.961 0-21.658-9.695-21.658-21.656s9.697-21.658 21.658-21.658v-11.176c0-11.963 9.697-21.656 21.658-21.656s21.658 9.693 21.658 21.656v11.248c11.304 0.723 20.26 10.098 20.26 21.586" fill="#f5c799"/>
    </g>
    <g transform="translate(144.19 212.88)">
     <path d="m0 0c0-2.473-2.005-4.477-4.477-4.477-2.475 0-4.482 2.004-4.482 4.477 0 2.475 2.007 4.482 4.482 4.482 2.472 0 4.477-2.007 4.477-4.482" fill="#26232c"/>
    </g>
    <g transform="translate(169.06 212.88)">
     <path d="m0 0c0-2.473-2.005-4.477-4.48-4.477-2.473 0-4.479 2.004-4.479 4.477 0 2.475 2.006 4.482 4.479 4.482 2.475 0 4.48-2.007 4.48-4.482" fill="#26232c"/>
    </g>
    <g transform="translate(142.71 214.38)">
     <path d="m0 0c0-0.824-0.669-1.494-1.494-1.494-0.824 0-1.492 0.67-1.492 1.494 0 0.826 0.668 1.494 1.492 1.494 0.825 0 1.494-0.668 1.494-1.494" fill="#fff"/>
    </g>
    <g transform="translate(167.57 214.38)">
     <path d="m0 0c0-0.824-0.671-1.494-1.496-1.494-0.823 0-1.492 0.67-1.492 1.494 0 0.826 0.669 1.494 1.492 1.494 0.825 0 1.496-0.668 1.496-1.494" fill="#fff"/>
    </g>
    <g transform="translate(156.69 197.92)">
     <path d="m0 0c4.413 0 5.796-2.844 3.069-6.314l-1.745-2.225c-2.724-3.475-7.185-3.475-9.909 0l-1.745 2.225c-2.726 3.47-1.342 6.314 3.069 6.314z" fill="#a95d21"/>
    </g>
    <g transform="translate(152.14 192.9)">
     <path d="m0 0c0-1.309-1.063-2.369-2.371-2.369-1.311 0-2.371 1.06-2.371 2.369 0 1.311 1.06 2.371 2.371 2.371 1.308 0 2.371-1.06 2.371-2.371" fill="#26232c"/>
    </g>
    <g transform="translate(159.23 192.9)">
     <path d="m0 0c0-1.309-1.06-2.369-2.372-2.369-1.308 0-2.371 1.06-2.371 2.369 0 1.311 1.063 2.371 2.371 2.371 1.312 0 2.372-1.06 2.372-2.371" fill="#26232c"/>
    </g>
    <g transform="translate(152.96 185.94)">
     <path d="m0 0s-3.918 1.867-7.651 0c-3.733-1.865-7.184-5.131-9.33-0.652 0 0-0.093-6.998 8.491-6.159 8.583 0.84 8.863 5.692 8.49 6.811" fill="#26232c"/>
    </g>
    <g transform="translate(153.16 185.94)">
     <path d="m0 0s3.918 1.867 7.651 0c3.732-1.865 7.184-5.131 9.329-0.652 0 0 0.094-6.998-8.49-6.159-8.584 0.84-8.863 5.692-8.49 6.811" fill="#26232c"/>
    </g>
    <g transform="translate(189.81 222.18)">
     <path d="m0 0c-0.872 0-1.577 0.174-1.577 0.389s0.705 0.388 1.577 0.388c0.871 0 1.576-0.173 1.576-0.388s-0.705-0.389-1.576-0.389m-2.721-7.65c-0.073-2.842-0.551-5.616-1.563-8.284-0.41-1.08-0.965-2.074-1.802-2.884-0.931-0.907-2.092-1.385-3.325-1.719-1.547-0.42-3.131-0.52-4.728-0.533-2.407-0.024-4.783 0.277-7.133 0.779-2.33 0.494-4.19 1.713-5.667 3.561-1.897 2.371-3.111 5.058-3.79 8.001-0.314 1.36-0.581 2.729-0.546 4.133 0.015 0.604 0.077 1.213 0.188 1.809 0.272 1.484 1.18 2.453 2.552 3.01 1.379 0.556 2.82 0.898 4.275 1.187 1.619 0.32 3.249 0.561 4.897 0.666 1.287 0.084 2.576 0.119 3.447 0.158 3.449-0.17 6.463-0.421 9.395-1.259 0.54-0.153 1.056-0.399 1.563-0.639 0.483-0.227 0.857-0.598 1.097-1.076 0.263-0.531 0.534-1.061 0.745-1.612 0.245-0.648 0.3-1.341 0.325-2.029 0.042-1.09 0.099-2.182 0.07-3.269m-42.172-0.875c-0.553-2.352-1.464-4.557-2.685-6.639-0.665-1.141-1.421-2.205-2.381-3.117-1.265-1.209-2.786-1.922-4.459-2.362-3.385-0.884-6.809-1.105-10.27-0.586-0.681 0.102-1.35 0.28-2.015 0.448-1.377 0.353-2.418 1.154-3.212 2.336-0.876 1.304-1.415 2.74-1.775 4.257-0.472 1.979-0.736 3.991-0.936 6.012-0.118 1.174-0.095 2.342 0.049 3.51 0.075 0.588 0.122 1.184 0.253 1.758 0.472 2.045 1.735 3.346 3.768 3.881 1.855 0.484 3.748 0.771 5.658 0.925 1.415 0.116 2.836 0.176 3.752 0.229 3.26-0.041 5.996-0.248 8.687-0.869 1.101-0.252 2.216-0.479 3.221-1.016 0.494-0.262 0.974-0.576 1.407-0.931 0.713-0.588 1.077-1.389 1.229-2.295 0.316-1.871 0.137-3.711-0.291-5.541m-30.479 8.525c-0.871 0-1.576 0.174-1.576 0.389s0.705 0.388 1.576 0.388c0.873 0 1.576-0.173 1.576-0.388s-0.703-0.389-1.576-0.389m78.723 2.551c-0.017 0.262-0.141 0.426-0.393 0.49-0.18 0.045-0.356 0.098-0.536 0.125-2.564 0.402-5.132 0.795-7.722 0.975-2.071 0.144-4.14 0.236-6.215 0.328-3.993 0.179-7.975 0.092-11.943-0.41-2.426-0.307-4.828-0.746-7.157-1.498-1.181-0.383-2.339-0.827-3.52-1.2-1.842-0.584-3.73-0.847-5.641-0.49-1.148 0.217-2.284 0.547-3.398 0.906-2.014 0.655-4.031 1.297-6.122 1.682-4.067 0.75-8.164 1.094-11.985 1.053-3.115-4e-3 -5.91-0.112-8.698-0.446-2.281-0.273-4.564-0.578-6.848-0.888-0.483-0.067-0.957-0.209-1.431-0.334-0.255-0.067-0.422-0.237-0.429-0.518-0.047-1.347-0.093-2.693-0.127-4.043-4e-3 -0.203 0.045-0.408 0.078-0.609 0.024-0.172 0.118-0.291 0.281-0.363 0.175-0.077 0.355-0.153 0.509-0.26 0.751-0.522 1.11-1.313 1.396-2.131 0.205-0.588 0.339-1.197 0.507-1.793 0.105-0.373 0.247-0.738 0.33-1.113 0.395-1.758 0.763-3.528 1.167-5.284 0.387-1.673 0.89-3.314 1.692-4.847 0.896-1.713 2.17-3.024 3.982-3.779 1.097-0.456 2.238-0.749 3.406-0.932 2.095-0.332 4.203-0.373 6.318-0.219 2.14 0.154 4.252 0.479 6.312 1.102 1.528 0.461 2.972 1.107 4.201 2.15 1.871 1.596 3.379 3.49 4.536 5.666 1.16 2.172 1.967 4.481 2.697 6.822 0.209 0.67 0.407 1.346 0.648 2.006 0.362 0.971 1.056 1.574 2.093 1.733 0.331 0.052 0.675 0.064 1.009 0.047 0.776-0.047 1.526-0.211 2.044-0.86 0.226-0.283 0.434-0.598 0.581-0.928 0.284-0.642 0.551-1.296 0.763-1.966 0.914-2.893 2.126-5.649 3.659-8.268 1.272-2.176 2.95-3.934 5.172-5.146 1.574-0.858 3.254-1.405 5.005-1.745 2.635-0.511 5.296-0.636 7.971-0.519 1.617 0.07 3.214 0.275 4.769 0.74 1.596 0.479 2.999 1.256 4.046 2.588 0.681 0.861 1.184 1.818 1.597 2.826 0.871 2.125 1.431 4.34 1.938 6.574 0.247 1.092 0.503 2.184 0.772 3.272 0.138 0.568 0.313 1.129 0.47 1.693 0.148 0.528 0.273 1.065 0.609 1.522 0.335 0.457 0.678 0.908 1.239 1.107 0.244 0.088 0.368 0.258 0.422 0.49 0.04 0.18 0.083 0.362 0.083 0.541 0 0.807 0 1.614-0.021 2.416-0.02 0.582-0.079 1.157-0.116 1.735"/>
    </g>
   </g>
  </g>
 </g>
</svg>
