<?xml version="1.0" encoding="UTF-8"?>
<!-- Created with Inkscape (http://www.inkscape.org/) -->
<svg width="59.972mm" height="59.973mm" version="1.1" viewBox="0 0 59.972 59.973" xmlns="http://www.w3.org/2000/svg" xmlns:cc="http://creativecommons.org/ns#" xmlns:dc="http://purl.org/dc/elements/1.1/" xmlns:rdf="http://www.w3.org/1999/02/22-rdf-syntax-ns#">
 <defs>
  <clipPath id="clipPath4307">
   <path d="m563.39 204.58c0-46.946 38.055-85.002 84.998-85.002 46.946 0 85.002 38.056 85.002 85.002 0 46.943-38.056 85-85.002 85-46.943 0-84.998-38.057-84.998-85"/>
  </clipPath>
  <clipPath id="clipPath4295">
   <path d="m0 800h800v-800h-800z"/>
  </clipPath>
 </defs>
 <metadata>
  <rdf:RDF>
   <cc:Work rdf:about="">
    <dc:format>image/svg+xml</dc:format>
    <dc:type rdf:resource="http://purl.org/dc/dcmitype/StillImage"/>
    <dc:title/>
   </cc:Work>
  </rdf:RDF>
 </metadata>
 <g transform="translate(-80.32 -212.83)">
  <g transform="matrix(.35278 0 0 -.35278 -118.43 314.99)">
   <g clip-path="url(#clipPath4295)">
    <g transform="translate(733.39 204.58)">
     <path d="m0 0c0 46.943-38.056 85-85.001 85-46.944 0-84.999-38.057-84.999-85 0-46.945 38.055-85.002 84.999-85.002 46.945 0 85.001 38.057 85.001 85.002" fill="#f9b44d"/>
    </g>
   </g>
  </g>
  <g transform="matrix(.35278 0 0 -.35278 -118.43 314.99)">
   <g clip-path="url(#clipPath4307)">
    <g transform="translate(648.39 173.14)">
     <path d="m0 0c-28.117 0-50.914-23.978-50.914-53.556h101.83c0 29.578-22.795 53.556-50.916 53.556" fill="#191009"/>
    </g>
    <g transform="translate(625.99 168.59)">
     <path d="m0 0 22.4-49.011 24.123 47.173 14.977-3.18-13.647-14.458 7.976-2.756-33.429-26.779-25.258 20.472 6.246 6.307-15.364 15.434z" fill="#434345"/>
    </g>
    <g transform="translate(629.38 236.57)">
     <path d="m0 0c0 5.371-4.353 9.723-9.724 9.723s-9.722-4.352-9.722-9.723 4.351-9.724 9.722-9.724 9.724 4.353 9.724 9.724" fill="#191009"/>
    </g>
    <g transform="translate(686.7 236.57)">
     <path d="m0 0c0 5.371-4.353 9.723-9.724 9.723s-9.722-4.352-9.722-9.723 4.351-9.724 9.722-9.724 9.724 4.353 9.724 9.724" fill="#191009"/>
    </g>
    <g transform="translate(681.82 234.95)">
     <path d="m0 0c0 3.572-2.895 6.467-6.466 6.467-3.572 0-6.467-2.895-6.467-6.467s2.895-6.466 6.467-6.466c3.571 0 6.466 2.894 6.466 6.466" fill="#3e3d42"/>
    </g>
    <g transform="translate(627.34 234.95)">
     <path d="m0 0c0 3.572-2.894 6.467-6.466 6.467s-6.466-2.895-6.466-6.467 2.894-6.466 6.466-6.466 6.466 2.894 6.466 6.466" fill="#3e3d42"/>
    </g>
    <g transform="translate(689.97 200.75)">
     <path d="m0 0c0 23.002-18.646 41.647-41.648 41.647-23.001 0-41.648-18.645-41.648-41.647s18.647-41.648 41.648-41.648c23.002 0 41.648 18.646 41.648 41.648" fill="#fcfcfc"/>
    </g>
    <g transform="translate(645.73 202.63)">
     <path d="m0 0c2.943 7.029-3.884 15.813-12.785 14.194-8.902-1.618-18.612-20.878-12.948-26.704 5.665-5.826 21.687 2.848 25.733 12.51" fill="#191009"/>
    </g>
    <g transform="translate(639.09 204.42)">
     <path d="m0 0c0 2.025-1.643 3.668-3.668 3.668s-3.668-1.643-3.668-3.668 1.643-3.668 3.668-3.668 3.668 1.643 3.668 3.668" fill="#4e4741"/>
    </g>
    <g transform="translate(637.21 204.42)">
     <path d="m0 0c0 0.986-0.801 1.786-1.787 1.786s-1.786-0.8-1.786-1.786 0.8-1.787 1.786-1.787 1.787 0.801 1.787 1.787" fill="#e3e1e2"/>
    </g>
    <g transform="translate(650.8 202.63)">
     <path d="M 0,0 C -2.944,7.029 3.884,15.813 12.785,14.194 21.687,12.576 31.397,-6.684 25.732,-12.51 20.068,-18.336 4.046,-9.662 0,0" fill="#191009"/>
    </g>
    <g transform="translate(657.44 204.42)">
     <path d="m0 0c0 2.025 1.643 3.668 3.669 3.668 2.025 0 3.668-1.643 3.668-3.668s-1.643-3.668-3.668-3.668c-2.026 0-3.669 1.643-3.669 3.668" fill="#4e4741"/>
    </g>
    <g transform="translate(659.32 204.42)">
     <path d="m0 0c0 0.986 0.801 1.786 1.787 1.786 0.985 0 1.786-0.8 1.786-1.786s-0.801-1.787-1.786-1.787c-0.986 0-1.787 0.801-1.787 1.787" fill="#e3e1e2"/>
    </g>
    <g transform="translate(650.96 187.51)">
     <path d="m0 0c3.128 0 4.108-2.015 2.176-4.475l-1.237-1.578c-1.931-2.461-5.092-2.461-7.023 0l-1.236 1.578c-1.933 2.46-0.952 4.475 2.174 4.475z" fill="#191009"/>
    </g>
    <g transform="translate(638.8 177.18)">
     <path d="m0 0s5.422-1.699 9.468 2.428c3.56-2.832 5.826-3.664 9.711-1.387-3.966-4.359-8.45-3.006-9.825-2.682-3.075-0.808-8.544-0.625-9.354 1.641" fill="#191009"/>
    </g>
    <g transform="translate(651.12 147.74)">
     <path d="m0 0c0 1.504-1.221 2.724-2.725 2.724s-2.725-1.22-2.725-2.724c0-1.506 1.221-2.725 2.725-2.725s2.725 1.219 2.725 2.725" fill="#434345"/>
    </g>
    <g transform="translate(651.12 138.31)">
     <path d="m0 0c0 1.505-1.221 2.725-2.725 2.725s-2.725-1.22-2.725-2.725 1.221-2.725 2.725-2.725 2.725 1.22 2.725 2.725" fill="#434345"/>
    </g>
   </g>
  </g>
 </g>
</svg>
