<?xml version="1.0" encoding="UTF-8"?>
<svg width="457.92" height="322.58" version="1.1" viewBox="0 0 457.92 322.58" xml:space="preserve" xmlns="http://www.w3.org/2000/svg"><g transform="matrix(1.3333 0 0 -1.3333 -88.177 434.23)"><g transform="translate(358.47 270.49)"><path d="m0 0c0-30.479-24.707-55.185-55.184-55.185s-55.184 24.706-55.184 55.185c0 30.477 24.707 55.184 55.184 55.184s55.184-24.707 55.184-55.184" fill="#6ab0a0"/></g><g transform="translate(256.27 241.58)"><path d="m0 0c0.45-0.73 0.916-1.45 1.398-2.157 10.03 9.39 46.533 45.337 61.262 83.99-0.81 0.24-1.628 0.461-2.454 0.663-0.177-0.462-0.354-0.925-0.537-1.387 0.199 0.058 0.397 0.114 0.597 0.172l0.709-2.429c-0.848-0.247-1.694-0.485-2.537-0.718-1.581-3.7-3.347-7.366-5.259-10.978 0.239 0.1 0.367 0.16 0.381 0.168l1.124-2.268c-0.176-0.087-1.229-0.591-3.336-1.269-2.361-4.223-4.902-8.358-7.548-12.37 0.344 0.063 0.536 0.103 0.554 0.107l0.523-2.476c-0.046-0.01-1.134-0.234-3.021-0.526-3.446-5.049-7.036-9.884-10.619-14.424 0.589-0.313 0.926-0.487 0.959-0.504l-1.154-2.251c-0.149 0.076-0.643 0.331-1.411 0.738-2.509-3.121-5.001-6.089-7.428-8.884 0.31-0.168 0.618-0.338 0.924-0.501l-1.188-2.233c-0.476 0.254-0.959 0.516-1.443 0.782-2.64-2.994-5.18-5.766-7.551-8.281 0.497-0.208 0.77-0.308 0.788-0.315l-0.851-2.382c-0.118 0.042-0.742 0.27-1.803 0.735-4.712-4.915-8.611-8.685-11.079-11.002" fill="#98d5cc"/></g><g transform="translate(290.38 252.81)"><path d="m0 0c13.507 14.56 31.1 37.211 41.36 64.958-0.731 0.441-1.472 0.867-2.224 1.275-16.29-44.461-52.103-76.606-65.413-87.42 0.6-0.607 1.217-1.199 1.845-1.777 5.509 4.474 14.572 12.335 24.432 22.964" fill="#98d5cc"/></g><g transform="translate(321.57 270.62)"><path d="m0 0c1e-3 -0.022 0.018-0.172 0.043-0.432 1.005 1.42 2.007 2.871 3.003 4.357-0.658 0.633-1.025 1.022-1.107 1.111l1.864 1.713c0.015-0.018 0.236-0.254 0.667-0.67 1.118 1.713 2.226 3.471 3.322 5.266-0.686 0.491-1.071 0.776-1.099 0.796l1.507 2.032c0.026-0.018 0.345-0.253 0.903-0.654 1.664 2.805 3.291 5.71 4.873 8.706-0.738 0.694-1.155 1.127-1.237 1.213l1.838 1.74c0.015-0.015 0.223-0.232 0.616-0.61 2.21 4.329 4.315 8.853 6.272 13.563-0.631 0.655-1.278 1.296-1.94 1.919-12.1-29.562-30.106-51.701-43.685-65.506-9.789-9.953-18.61-16.989-24.096-21.025 0.761-0.495 1.535-0.97 2.322-1.426 5.08 3.785 12.553 9.807 20.898 18.001 6e-3 1.006 0.011 2.022 9e-3 3.052l2.53 4e-3c0-0.174-1e-3 -0.348-1e-3 -0.523 0.028 0.028 0.057 0.056 0.084 0.084 3.191 3.243 6.627 6.944 10.17 11.085-0.064 1.022-0.129 2.057-0.202 3.105l2.523 0.175c0.012-0.164 0.022-0.322 0.033-0.485 2.538 3.068 5.118 6.352 7.691 9.857-0.183 2.036-0.311 3.212-0.317 3.276z" fill="#98d5cc"/></g><g transform="translate(288.46 275.18)"><path d="m0 0c-0.033 0.018-0.37 0.191-0.959 0.504-3.098 1.642-13.213 7.132-23.584 14.153-1.479 0.227-2.968 0.486-4.455 0.797l0.421 2.008c-1.781 1.273-3.542 2.583-5.251 3.917-0.41-0.763-0.803-1.536-1.177-2.32 12.619-9.809 27.75-18.087 32.44-20.572 0.768-0.407 1.261-0.662 1.411-0.738z" fill="#98d5cc"/></g><g transform="translate(279.39 264.28)"><path d="m0 0c-0.306 0.163-0.614 0.333-0.924 0.501-9.752 5.3-21.016 13.203-28.774 18.923-0.22-0.893-0.418-1.795-0.592-2.704 7.643-5.604 18.281-13.019 27.659-18.171 0.485-0.266 0.967-0.528 1.444-0.782z" fill="#98d5cc"/></g><g transform="translate(270 254.23)"><path d="m0 0c-0.019 7e-3 -0.291 0.106-0.788 0.314-2.406 1.006-10.153 4.571-21.016 12.68 0.067-1.14 0.167-2.27 0.302-3.39 9.108-6.614 15.805-9.919 18.848-11.251 1.06-0.465 1.684-0.694 1.802-0.736z" fill="#98d5cc"/></g><g transform="translate(316.53 322.86)"><path d="m0 0c-0.199-0.058-0.397-0.114-0.597-0.171-17.136-4.936-33.147-6.84-45.002-7.498-1.176-0.853-2.318-1.75-3.422-2.691 11.854 0.456 28.82 2.134 47.194 7.213 0.843 0.233 1.688 0.471 2.536 0.718z" fill="#98d5cc"/></g><g transform="translate(309.83 308.91)"><path d="m0 0c-0.014-7e-3 -0.142-0.067-0.381-0.167-2.433-1.015-16.82-6.284-50.374-5.222-0.606-0.812-1.189-1.643-1.753-2.488 3.842-0.148 7.449-0.217 10.82-0.217 21.972 0 34.126 2.838 39.476 4.557 2.108 0.678 3.16 1.182 3.336 1.269z" fill="#98d5cc"/></g><g transform="translate(263.92 289.83)"><path d="m0 0c5.419-0.83 10.74-1.136 15.589-1.136 8.12 0 14.911 0.835 18.614 1.407 1.887 0.292 2.975 0.516 3.021 0.526l-0.523 2.476c-0.018-4e-3 -0.211-0.044-0.555-0.107-3.389-0.636-21.776-3.724-40.083 0.107l-0.097-0.468-0.421-2.008c1.487-0.312 2.976-0.57 4.455-0.797" fill="#98d5cc"/></g><g transform="translate(320.96 232.86)"><path d="m0 0c0-4.875-0.117-9.884-0.404-14.802 0.872 0.287 1.732 0.596 2.586 0.924 0.237 4.483 0.34 9.027 0.346 13.463-0.837-0.613-1.373-0.988-1.494-1.072z" fill="#98d5cc"/></g><g transform="translate(323.08 249.71)"><path d="m0 0c-0.306-0.235-0.494-0.373-0.539-0.407l-1.49 2.045c0.023 0.016 0.716 0.526 1.872 1.49-0.486 9.006-1.136 15.642-1.312 17.35-0.025 0.259-0.042 0.409-0.043 0.431l-2.515-0.276c6e-3 -0.064 0.133-1.239 0.316-3.276 0.533-5.877 1.551-18.947 1.59-33.326 0.475 0.341 1.351 0.98 2.516 1.865-0.041 4.973-0.192 9.756-0.395 14.104" fill="#98d5cc"/></g><g transform="translate(309.12 257.52)"><path d="m0 0c0.073-1.049 0.139-2.083 0.202-3.105 1.073-17.42 0.797-30.783 0.4-38.743 0.855 0.101 1.705 0.22 2.548 0.358 0.41 8.51 0.658 22.737-0.593 41.179-0.012 0.164-0.022 0.322-0.034 0.486z" fill="#98d5cc"/></g><g transform="translate(296.54 243.77)"><path d="m0 0c2e-3 -1.03-3e-3 -2.047-9e-3 -3.053-0.067-10.331-0.527-19.247-0.897-24.886 0.832-0.116 1.672-0.213 2.516-0.29 0.405 6.129 0.919 16.171 0.919 27.709 0 0.175 1e-3 0.349 1e-3 0.524z" fill="#98d5cc"/></g><g transform="translate(336.15 295.8)"><path d="m0 0-1.838-1.739c0.082-0.087 0.499-0.52 1.236-1.214 2.784-2.622 10.252-9.051 22.478-15.348-0.134 1.053-0.301 2.096-0.493 3.13-11.756 6.315-18.749 12.619-20.767 14.562-0.393 0.377-0.601 0.594-0.616 0.609" fill="#98d5cc"/></g><g transform="translate(328.26 282.76)"><path d="m0 0c0.027-0.02 0.413-0.305 1.099-0.796 3.547-2.538 15.27-10.698 28.755-17.677 0.099 0.902 0.178 1.81 0.236 2.725-13.175 6.912-24.494 14.839-27.681 17.126-0.557 0.401-0.877 0.636-0.902 0.654z" fill="#98d5cc"/></g><g transform="translate(325.37 277.37)"><path d="m0 0-1.863-1.712c0.081-0.089 0.448-0.479 1.106-1.112 1.648-1.582 5.187-4.718 10.983-8.669 0.283 0.355 0.565 0.712 0.848 1.078l2.001-1.546c-0.245-0.32-0.491-0.633-0.737-0.943 2.619-1.709 5.637-3.542 9.072-5.447 0.232 0.372 0.456 0.745 0.67 1.116l2.195-1.259c-0.205-0.356-0.421-0.713-0.64-1.069 2.184-1.168 4.526-2.356 7.027-3.559 0.254 0.823 0.488 1.651 0.703 2.488-18.725 9.075-28.224 17.568-30.698 19.965-0.431 0.416-0.651 0.651-0.667 0.669" fill="#98d5cc"/></g><g transform="translate(337.71 264.47)"><path d="m0 0c0.246 0.31 0.492 0.623 0.737 0.942l-2.001 1.547c-0.283-0.366-0.565-0.723-0.848-1.078-5.101-6.398-10.072-10.871-12.674-13.037-1.156-0.964-1.849-1.474-1.872-1.49l1.49-2.045c0.045 0.034 0.233 0.172 0.539 0.407 1.842 1.423 8.082 6.501 14.629 14.754" fill="#98d5cc"/></g><g transform="translate(349.01 257.81)"><path d="m0 0c0.219 0.356 0.436 0.713 0.641 1.069l-2.196 1.259c-0.214-0.371-0.438-0.744-0.67-1.116-5.987-9.629-17.817-19.243-23.306-23.411-1.164-0.885-2.04-1.524-2.516-1.864-0.245-0.176-0.394-0.282-0.411-0.292l0.411-0.589 1.034-1.488c0.121 0.084 0.658 0.459 1.494 1.073 4.619 3.383 18.628 14.179 25.519 25.359" fill="#98d5cc"/></g><g transform="translate(171.16 84.662)"><path d="m0 0s-26.679-3.859-35.355 4.141c-6.936 6.395-14.852 13.344 42.859 14.859s69.474 12.595 53.029 15.5c-16.444 2.905-134.69-12.809-146.69 3.691-8 11 129.47 6.728 158.62 5.228 29.153-1.5 47.099-33.419-72.466-43.419" fill="#f58a28"/></g><g transform="translate(409.57 156.28)"><path d="m0 0c0-10.48-67.353-18.977-150.44-18.977-83.085 0-150.44 8.497-150.44 18.977s67.354 18.977 150.44 18.977c83.086 0 150.44-8.497 150.44-18.977" fill="#f58a28"/></g><g transform="translate(368.6 183.71)"><path d="m0 0s35.065-18.118 40.975-26.285c0 0-51.199-6.045-59.742-5.822 0 0 6.897 25.211 18.767 32.107" fill="#3c2a34"/></g><g transform="translate(371.98 175.25)"><path d="m0 0s19.164-9.273 28.552-18.978c0 0-43.681-6.362-51.157-4.678 0 0 20.88 18.419 22.605 23.656" fill="#df9fa1"/></g><g transform="translate(372.04 167.61)"><path d="m0 0s9.911-2.067 11.252-5.134c1.341-3.065-16.863-2.106-16.863-2.106s8.049-2.247 6.707-4.095c-1.342-1.846-11.498 0-11.498 0s8.048 0.261 8.048 0.837c0 0.574-6.245 4.42-6.245 4.42s14.296-0.397 14.199 0.944c-0.096 1.342-5.6 5.134-5.6 5.134" fill="#f5efdb"/></g><g transform="translate(370.09 235.18)"><path d="m0 0s0.639 42.196-5.022 52.137c0 0-27.682-43.492-31.189-51.283 0 0 24.845-8.551 36.211-0.854" fill="#3c2a34"/></g><g transform="translate(363.82 242.4)"><path d="m0 0s1.037 25.153-3.335 37.681c0 0-20.28-29.901-22.447-36.387 0 0 21.036-0.239 25.782-1.294" fill="#df9fa1"/></g><g transform="translate(358.18 251.63)"><path d="m0 0s3.329 9.561 1.391 12.289c-1.939 2.728-10.488-13.373-10.488-13.373s2.217 8.057-0.058 7.857c-2.274-0.199-5.917-9.856-5.917-9.856s4.365 6.765 4.858 6.469c0.494-0.296 0.576-7.631 0.576-7.631s7.019 12.462 8.119 11.689c1.099-0.774 1.519-7.444 1.519-7.444" fill="#f5efdb"/></g><g transform="translate(118.45 204.13)"><path d="m0 0s-44.961-3.249-31.064-46.096c13.897-42.846 173.94 1.452 179.15-31.328 5.213-32.781-97.623-44.299-118-34.554-20.381 9.747 3.416 15.949 38.766 15.949s58.48 5.628 53.587 13.061c-2.954 4.487-28.381 2.488-28.381 2.488s-111.09-13.633-133.45 7.485c-24.536 23.172-15.788 87.692 40.762 92.617z" fill="#3c2a34"/></g><g transform="translate(200.54 147.11)"><path d="m0 0s168.27-22.574 176.44 32.347c8.451 56.783-18.143 73.978-51.358 73.624-33.216-0.356-79.323 1.172-101.59 34.209-27.57 40.905-102.53 9.595-112.26-38.127-22.842-112.06 88.767-102.05 88.767-102.05" fill="#f5efdb"/></g><g transform="translate(294.8 254.05)"><path d="m0 0s12.65-58.624 82.83-41.813c0 0 0.93 55.877-82.83 41.813" fill="#3c2a34"/></g><g transform="translate(378.54 201.04)"><path d="m0 0s-61.436 14.259-68.096-56.707c0 0 79.748-0.072 68.096 56.707" fill="#3c2a34"/></g><g transform="translate(345.33 215.3)"><path d="m0 0c-8.146-0.146-14.87 6.341-15.016 14.487-0.147 8.148 6.34 14.871 14.488 15.017 8.145 0.145 14.871-6.34 15.016-14.487 0.146-8.148-6.342-14.87-14.488-15.017" fill="#ffcc05"/></g><g transform="translate(345.28 218.49)"><path d="m0 0c-6.39-0.115-11.662 4.973-11.776 11.361-0.116 6.39 4.971 11.661 11.361 11.778 6.389 0.114 11.661-4.974 11.776-11.363s-4.972-11.662-11.361-11.776" fill="#3c2a34"/></g><g transform="translate(348.95 164.03)"><path d="m0 0c-8.148-0.146-14.872 6.34-15.018 14.487-0.145 8.148 6.342 14.871 14.488 15.017 8.147 0.146 14.871-6.34 15.016-14.487 0.147-8.147-6.34-14.871-14.486-15.017" fill="#ffcc05"/></g><g transform="translate(218.92 149.61)"><path d="m0 0s55.24 41.579-40.648 83.158c0 0 104.4-33.636 40.648-83.158" fill="#d0c4b3"/></g><g transform="translate(157.75 236.51)"><path d="m0 0s75.747-32.948 80.863-24.063c7.377 12.81-69.087 59.65-80.863 24.063" fill="#3c2a34"/></g><g transform="translate(348.96 135.33)"><path d="m0 0s-19.572 19.867-16.115 64.643c0 0-7.235-42.208 16.115-64.643" fill="#fffaef"/></g><g transform="translate(338.77 128.08)"><path d="m0 0s-18.215 27.573-7.221 71.544c0 0-13.05-46.294 7.221-71.544" fill="#fffaef"/></g><g transform="translate(324.15 135.25)"><path d="m0 0s-13.538 25.975 6.177 64.732c0 0-22.896-37-6.177-64.732" fill="#fffaef"/></g><g transform="translate(340.25 280.08)"><path d="m0 0s-20.344-19.078-18.66-63.954c0 0-5.559 42.46 18.66 63.954" fill="#fffaef"/></g><g transform="translate(330.36 287.73)"><path d="m0 0s-19.29-26.833-10.045-71.203c0 0-11.209 46.774 10.045 71.203" fill="#fffaef"/></g><g transform="translate(315.46 281.14)"><path d="m0 0s-14.556-25.417 3.612-64.926c0 0-21.414 37.878-3.612 64.926" fill="#fffaef"/></g><g transform="translate(312.86 212.22)"><path d="m0 0 15.068-8.447-17.528-8.346 8.764 8.397z" fill="#3c2a34"/></g><g transform="translate(340.64 206.79)"><path d="m0 0-9.698-2.963 8.925-4.694z" fill="#ee4623"/></g><g transform="translate(288.68 142.78)"><path d="m0 0s16.871 21.251 0.108 47.575c-8.836 13.875-26.94 17.925-30.307 7.682-3.369-10.243 13.333-14.586 12.463-27.554-0.669-9.955-14.821-27.688-14.821-27.688l15.463-0.528z" fill="#3c2a34"/></g><g transform="translate(279.88 255.88)"><path d="m0 0s18.126-7.531 1.757-34.102c-8.628-14.004-26.671-18.323-30.192-8.13-3.519 10.191 13.116 14.782 12.052 27.736-0.816 9.944-15.301 24.57-15.301 24.57z" fill="#3c2a34"/></g><g transform="translate(355.41 221.32)"><path d="m0 0c0-1.346-1.091-2.437-2.436-2.437s-2.436 1.091-2.436 2.437c0 1.345 1.091 2.436 2.436 2.436s2.436-1.091 2.436-2.436" fill="#f5efdb"/></g><g transform="translate(348.12 167.22)"><path d="m0 0c-6.388-0.115-11.66 4.973-11.775 11.361-0.115 6.39 4.972 11.661 11.36 11.778 6.391 0.114 11.662-4.974 11.777-11.363 0.116-6.389-4.972-11.662-11.362-11.776" fill="#3c2a34"/></g><g transform="translate(358.25 170.05)"><path d="m0 0c0-1.347-1.091-2.437-2.437-2.437-1.343 0-2.436 1.09-2.436 2.437 0 1.345 1.093 2.436 2.436 2.436 1.346 0 2.437-1.091 2.437-2.436" fill="#f5efdb"/></g><g transform="translate(200.54 147.11)"><path d="m0 0s-8.21 38.703-59.93 31.68c-21.5-2.92 13.612 70.044-30.671 59.638 0 0-25.273-94.09 90.601-91.318" fill="#3c2a34"/></g><g transform="translate(189.84 239.18)"><path d="m0 0s21.16-2.44 20.224-10.71c-0.935-8.269-37.786 10.216-20.224 10.71" fill="#df9fa1"/></g><g transform="translate(220.77 232.47)"><path d="m0 0s-3.874 2.133-5.678-0.516c-1.804-2.648 13.193-5.798 5.678 0.516" fill="#df9fa1"/></g><g transform="translate(220.17 226.44)"><path d="m0 0s-3.666 2.476-5.701 0c-2.036-2.476 12.614-6.967 5.701 0" fill="#df9fa1"/></g><g transform="translate(216.66 220.31)"><path d="m0 0s-1.6613 2.6735-4.2763 0.81949c-2.614-1.853 9.1173-9.3585 4.2763-0.81949" fill="#df9fa1"/></g><g transform="translate(258.49 198.04)"><path d="m0 0s5.84-4.202 7.086-7.68c0 0-0.473 7.968-7.086 7.68" fill="#f5efdb"/></g><g transform="translate(260.76 201.22)"><path d="m0 0s5.84-4.202 7.086-7.68c0 0-0.473 7.968-7.086 7.68" fill="#f5efdb"/></g><g transform="translate(265.57 203.46)"><path d="m0 0s5.84-4.202 7.086-7.68c0 0-0.473 7.968-7.086 7.68" fill="#f5efdb"/></g><g transform="translate(258.53 224.16)"><path d="m0 0s-3.928-6.027-7.344-7.433c0 0 7.938 0.84 7.344 7.433" fill="#f5efdb"/></g><g transform="translate(260.85 219.96)"><path d="m0 0s-4.357-5.725-7.867-6.877c0 0 7.977 0.258 7.867 6.877" fill="#f5efdb"/></g><g transform="translate(229.56 220.14)"><path d="m0 0s6.688-2.65 8.746-5.719c0 0-2.402 7.613-8.746 5.719" fill="#f5efdb"/></g><g transform="translate(226.94 215.98)"><path d="m0 0s7.078-1.291 9.695-3.897c0 0-3.844 6.995-9.695 3.897" fill="#f5efdb"/></g><g transform="translate(154.06 294.1)"><path d="M 0,0 C 0,0 82.297,7.09 82.566,17.339 82.954,32.117 -6.588,36.901 0,0" fill="#3c2a34"/></g><g transform="translate(181.02 311.73)"><path d="m0 0s19.77 7.928 22.884 0.21c3.115-7.715-38.093-9.006-22.884-0.21" fill="#df9fa1"/></g><g transform="translate(211.41 320.55)"><path d="m0 0s-4.423 0.032-4.748-3.156 14.362 1.181 4.748 3.156" fill="#df9fa1"/></g><g transform="translate(213.76 314.96)"><path d="m0 0s-4.402 0.432-5.013-2.714c-0.612-3.147 14.409-0.121 5.013 2.714" fill="#df9fa1"/></g><g transform="translate(213.58 307.89)"><path d="m0 0s-4.133 1.573-5.551-1.303c-1.416-2.874 13.874-3.901 5.551 1.303" fill="#df9fa1"/></g><g transform="translate(225.01 313.89)"><path d="m0 0s7.144 0.854 10.414-0.865c0 0-5.737 5.55-10.414 0.865" fill="#f5efdb"/></g><g transform="translate(224.68 308.98)"><path d="m0 0s6.839 2.234 10.381 1.188c0 0-6.711 4.321-10.381-1.188" fill="#f5efdb"/></g><g transform="translate(264.5 216.8)"><path d="m0 0s-3.928-6.027-7.344-7.433c0 0 7.938 0.84 7.344 7.433" fill="#f5efdb"/></g><g transform="translate(358.47 270.49)" fill="#e6790d"><path d="m0 0c0-30.479-24.707-55.185-55.184-55.185s-55.184 24.706-55.184 55.185c0 30.477 24.707 55.184 55.184 55.184s55.184-24.707 55.184-55.184" fill="#e6790d"/></g><g fill="#b24201"><g transform="translate(256.27 241.58)"><path d="m0 0c0.45-0.73 0.916-1.45 1.398-2.157 10.03 9.39 46.533 45.337 61.262 83.99-0.81 0.24-1.628 0.461-2.454 0.663-0.177-0.462-0.354-0.925-0.537-1.387 0.199 0.058 0.397 0.114 0.597 0.172l0.709-2.429c-0.848-0.247-1.694-0.485-2.537-0.718-1.581-3.7-3.347-7.366-5.259-10.978 0.239 0.1 0.367 0.16 0.381 0.168l1.124-2.268c-0.176-0.087-1.229-0.591-3.336-1.269-2.361-4.223-4.902-8.358-7.548-12.37 0.344 0.063 0.536 0.103 0.554 0.107l0.523-2.476c-0.046-0.01-1.134-0.234-3.021-0.526-3.446-5.049-7.036-9.884-10.619-14.424 0.589-0.313 0.926-0.487 0.959-0.504l-1.154-2.251c-0.149 0.076-0.643 0.331-1.411 0.738-2.509-3.121-5.001-6.089-7.428-8.884 0.31-0.168 0.618-0.338 0.924-0.501l-1.188-2.233c-0.476 0.254-0.959 0.516-1.443 0.782-2.64-2.994-5.18-5.766-7.551-8.281 0.497-0.208 0.77-0.308 0.788-0.315l-0.851-2.382c-0.118 0.042-0.742 0.27-1.803 0.735-4.712-4.915-8.611-8.685-11.079-11.002" fill="#b24201"/></g><g transform="translate(290.38 252.81)"><path d="m0 0c13.507 14.56 31.1 37.211 41.36 64.958-0.731 0.441-1.472 0.867-2.224 1.275-16.29-44.461-52.103-76.606-65.413-87.42 0.6-0.607 1.217-1.199 1.845-1.777 5.509 4.474 14.572 12.335 24.432 22.964" fill="#b24201"/></g><g transform="translate(321.57 270.62)"><path d="m0 0c1e-3 -0.022 0.018-0.172 0.043-0.432 1.005 1.42 2.007 2.871 3.003 4.357-0.658 0.633-1.025 1.022-1.107 1.111l1.864 1.713c0.015-0.018 0.236-0.254 0.667-0.67 1.118 1.713 2.226 3.471 3.322 5.266-0.686 0.491-1.071 0.776-1.099 0.796l1.507 2.032c0.026-0.018 0.345-0.253 0.903-0.654 1.664 2.805 3.291 5.71 4.873 8.706-0.738 0.694-1.155 1.127-1.237 1.213l1.838 1.74c0.015-0.015 0.223-0.232 0.616-0.61 2.21 4.329 4.315 8.853 6.272 13.563-0.631 0.655-1.278 1.296-1.94 1.919-12.1-29.562-30.106-51.701-43.685-65.506-9.789-9.953-18.61-16.989-24.096-21.025 0.761-0.495 1.535-0.97 2.322-1.426 5.08 3.785 12.553 9.807 20.898 18.001 6e-3 1.006 0.011 2.022 9e-3 3.052l2.53 4e-3c0-0.174-1e-3 -0.348-1e-3 -0.523 0.028 0.028 0.057 0.056 0.084 0.084 3.191 3.243 6.627 6.944 10.17 11.085-0.064 1.022-0.129 2.057-0.202 3.105l2.523 0.175c0.012-0.164 0.022-0.322 0.033-0.485 2.538 3.068 5.118 6.352 7.691 9.857-0.183 2.036-0.311 3.212-0.317 3.276z" fill="#b24201"/></g><g transform="translate(288.46 275.18)"><path d="m0 0c-0.033 0.018-0.37 0.191-0.959 0.504-3.098 1.642-13.213 7.132-23.584 14.153-1.479 0.227-2.968 0.486-4.455 0.797l0.421 2.008c-1.781 1.273-3.542 2.583-5.251 3.917-0.41-0.763-0.803-1.536-1.177-2.32 12.619-9.809 27.75-18.087 32.44-20.572 0.768-0.407 1.261-0.662 1.411-0.738z" fill="#b24201"/></g><g transform="translate(279.39 264.28)"><path d="m0 0c-0.306 0.163-0.614 0.333-0.924 0.501-9.752 5.3-21.016 13.203-28.774 18.923-0.22-0.893-0.418-1.795-0.592-2.704 7.643-5.604 18.281-13.019 27.659-18.171 0.485-0.266 0.967-0.528 1.444-0.782z" fill="#b24201"/></g><g transform="translate(270 254.23)"><path d="m0 0c-0.019 7e-3 -0.291 0.106-0.788 0.314-2.406 1.006-10.153 4.571-21.016 12.68 0.067-1.14 0.167-2.27 0.302-3.39 9.108-6.614 15.805-9.919 18.848-11.251 1.06-0.465 1.684-0.694 1.802-0.736z" fill="#b24201"/></g><g transform="translate(316.53 322.86)"><path d="m0 0c-0.199-0.058-0.397-0.114-0.597-0.171-17.136-4.936-33.147-6.84-45.002-7.498-1.176-0.853-2.318-1.75-3.422-2.691 11.854 0.456 28.82 2.134 47.194 7.213 0.843 0.233 1.688 0.471 2.536 0.718z" fill="#b24201"/></g><g transform="translate(309.83 308.91)"><path d="m0 0c-0.014-7e-3 -0.142-0.067-0.381-0.167-2.433-1.015-16.82-6.284-50.374-5.222-0.606-0.812-1.189-1.643-1.753-2.488 3.842-0.148 7.449-0.217 10.82-0.217 21.972 0 34.126 2.838 39.476 4.557 2.108 0.678 3.16 1.182 3.336 1.269z" fill="#b24201"/></g><g transform="translate(263.92 289.83)"><path d="m0 0c5.419-0.83 10.74-1.136 15.589-1.136 8.12 0 14.911 0.835 18.614 1.407 1.887 0.292 2.975 0.516 3.021 0.526l-0.523 2.476c-0.018-4e-3 -0.211-0.044-0.555-0.107-3.389-0.636-21.776-3.724-40.083 0.107l-0.097-0.468-0.421-2.008c1.487-0.312 2.976-0.57 4.455-0.797" fill="#b24201"/></g></g><g transform="translate(320.96 232.86)"><path d="m0 0c0-4.875-0.117-9.884-0.404-14.802 0.872 0.287 1.732 0.596 2.586 0.924 0.237 4.483 0.34 9.027 0.346 13.463-0.837-0.613-1.373-0.988-1.494-1.072z" fill="#98d5cc"/></g><g transform="translate(323.08 249.71)" fill="#b24201"><path d="m0 0c-0.306-0.235-0.494-0.373-0.539-0.407l-1.49 2.045c0.023 0.016 0.716 0.526 1.872 1.49-0.486 9.006-1.136 15.642-1.312 17.35-0.025 0.259-0.042 0.409-0.043 0.431l-2.515-0.276c6e-3 -0.064 0.133-1.239 0.316-3.276 0.533-5.877 1.551-18.947 1.59-33.326 0.475 0.341 1.351 0.98 2.516 1.865-0.041 4.973-0.192 9.756-0.395 14.104" fill="#b24201"/></g><g transform="translate(309.12 257.52)" fill="#b24201"><path d="m0 0c0.073-1.049 0.139-2.083 0.202-3.105 1.073-17.42 0.797-30.783 0.4-38.743 0.855 0.101 1.705 0.22 2.548 0.358 0.41 8.51 0.658 22.737-0.593 41.179-0.012 0.164-0.022 0.322-0.034 0.486z" fill="#b24201"/></g><g transform="translate(296.54 243.77)"><path d="m0 0c2e-3 -1.03-3e-3 -2.047-9e-3 -3.053-0.067-10.331-0.527-19.247-0.897-24.886 0.832-0.116 1.672-0.213 2.516-0.29 0.405 6.129 0.919 16.171 0.919 27.709 0 0.175 1e-3 0.349 1e-3 0.524z" fill="#98d5cc"/></g><g fill="#b24201"><g transform="translate(336.15 295.8)"><path d="m0 0-1.838-1.739c0.082-0.087 0.499-0.52 1.236-1.214 2.784-2.622 10.252-9.051 22.478-15.348-0.134 1.053-0.301 2.096-0.493 3.13-11.756 6.315-18.749 12.619-20.767 14.562-0.393 0.377-0.601 0.594-0.616 0.609" fill="#b24201"/></g><g transform="translate(328.26 282.76)"><path d="m0 0c0.027-0.02 0.413-0.305 1.099-0.796 3.547-2.538 15.27-10.698 28.755-17.677 0.099 0.902 0.178 1.81 0.236 2.725-13.175 6.912-24.494 14.839-27.681 17.126-0.557 0.401-0.877 0.636-0.902 0.654z" fill="#b24201"/></g><g transform="translate(325.37 277.37)"><path d="m0 0-1.863-1.712c0.081-0.089 0.448-0.479 1.106-1.112 1.648-1.582 5.187-4.718 10.983-8.669 0.283 0.355 0.565 0.712 0.848 1.078l2.001-1.546c-0.245-0.32-0.491-0.633-0.737-0.943 2.619-1.709 5.637-3.542 9.072-5.447 0.232 0.372 0.456 0.745 0.67 1.116l2.195-1.259c-0.205-0.356-0.421-0.713-0.64-1.069 2.184-1.168 4.526-2.356 7.027-3.559 0.254 0.823 0.488 1.651 0.703 2.488-18.725 9.075-28.224 17.568-30.698 19.965-0.431 0.416-0.651 0.651-0.667 0.669" fill="#b24201"/></g><g transform="translate(337.71 264.47)"><path d="m0 0c0.246 0.31 0.492 0.623 0.737 0.942l-2.001 1.547c-0.283-0.366-0.565-0.723-0.848-1.078-5.101-6.398-10.072-10.871-12.674-13.037-1.156-0.964-1.849-1.474-1.872-1.49l1.49-2.045c0.045 0.034 0.233 0.172 0.539 0.407 1.842 1.423 8.082 6.501 14.629 14.754" fill="#b24201"/></g></g><g transform="translate(349.01 257.81)"><path d="m0 0c0.219 0.356 0.436 0.713 0.641 1.069l-2.196 1.259c-0.214-0.371-0.438-0.744-0.67-1.116-5.987-9.629-17.817-19.243-23.306-23.411-1.164-0.885-2.04-1.524-2.516-1.864-0.245-0.176-0.394-0.282-0.411-0.292l0.411-0.589 1.034-1.488c0.121 0.084 0.658 0.459 1.494 1.073 4.619 3.383 18.628 14.179 25.519 25.359" fill="#98d5cc"/></g><g transform="translate(171.16 84.662)" fill="#6f988b"><path d="m0 0s-26.679-3.859-35.355 4.141c-6.936 6.395-14.852 13.344 42.859 14.859s69.474 12.595 53.029 15.5c-16.444 2.905-134.69-12.809-146.69 3.691-8 11 129.47 6.728 158.62 5.228 29.153-1.5 47.099-33.419-72.466-43.419" fill="#6f988b"/></g><g transform="translate(409.57 156.28)" fill="#6f988b"><path d="m0 0c0-10.48-67.353-18.977-150.44-18.977-83.085 0-150.44 8.497-150.44 18.977s67.354 18.977 150.44 18.977c83.086 0 150.44-8.497 150.44-18.977" fill="#6f988b"/></g><g transform="translate(368.6 183.71)"><path d="m0 0s35.065-18.118 40.975-26.285c0 0-51.199-6.045-59.742-5.822 0 0 6.897 25.211 18.767 32.107" fill="#3c2a34"/></g><g transform="translate(371.98 175.25)" fill="#fac999"><path d="m0 0s19.164-9.273 28.552-18.978c0 0-43.681-6.362-51.157-4.678 0 0 20.88 18.419 22.605 23.656" fill="#fac999"/></g><g transform="translate(372.04 167.61)"><path d="m0 0s9.911-2.067 11.252-5.134c1.341-3.065-16.863-2.106-16.863-2.106s8.049-2.247 6.707-4.095c-1.342-1.846-11.498 0-11.498 0s8.048 0.261 8.048 0.837c0 0.574-6.245 4.42-6.245 4.42s14.296-0.397 14.199 0.944c-0.096 1.342-5.6 5.134-5.6 5.134" fill="#f5efdb"/></g><g transform="translate(370.09 235.18)"><path d="m0 0s0.639 42.196-5.022 52.137c0 0-27.682-43.492-31.189-51.283 0 0 24.845-8.551 36.211-0.854" fill="#3c2a34"/></g><g transform="translate(363.82 242.4)" fill="#fac999"><path d="m0 0s1.037 25.153-3.335 37.681c0 0-20.28-29.901-22.447-36.387 0 0 21.036-0.239 25.782-1.294" fill="#fac999"/></g><g transform="translate(358.18 251.63)"><path d="m0 0s3.329 9.561 1.391 12.289c-1.939 2.728-10.488-13.373-10.488-13.373s2.217 8.057-0.058 7.857c-2.274-0.199-5.917-9.856-5.917-9.856s4.365 6.765 4.858 6.469c0.494-0.296 0.576-7.631 0.576-7.631s7.019 12.462 8.119 11.689c1.099-0.774 1.519-7.444 1.519-7.444" fill="#f5efdb"/></g><g transform="translate(118.45 204.13)"><path d="m0 0s-44.961-3.249-31.064-46.096c13.897-42.846 173.94 1.452 179.15-31.328 5.213-32.781-97.623-44.299-118-34.554-20.381 9.747 3.416 15.949 38.766 15.949s58.48 5.628 53.587 13.061c-2.954 4.487-28.381 2.488-28.381 2.488s-111.09-13.633-133.45 7.485c-24.536 23.172-15.788 87.692 40.762 92.617z" fill="#3c2a34"/></g><g transform="translate(200.54 147.11)"><path d="m0 0s168.27-22.574 176.44 32.347c8.451 56.783-18.143 73.978-51.358 73.624-33.216-0.356-79.323 1.172-101.59 34.209-27.57 40.905-102.53 9.595-112.26-38.127-22.842-112.06 88.767-102.05 88.767-102.05" fill="#f5efdb"/></g><g transform="translate(294.8 254.05)"><path d="m0 0s12.65-58.624 82.83-41.813c0 0 0.93 55.877-82.83 41.813" fill="#3c2a34"/></g><g transform="translate(378.54 201.04)"><path d="m0 0s-61.436 14.259-68.096-56.707c0 0 79.748-0.072 68.096 56.707" fill="#3c2a34"/></g><g transform="translate(345.33 215.3)" fill="#acc9bd"><path d="m0 0c-8.146-0.146-14.87 6.341-15.016 14.487-0.147 8.148 6.34 14.871 14.488 15.017 8.145 0.145 14.871-6.34 15.016-14.487 0.146-8.148-6.342-14.87-14.488-15.017" fill="#acc9bd"/></g><g transform="translate(345.28 218.49)"><path d="m0 0c-6.39-0.115-11.662 4.973-11.776 11.361-0.116 6.39 4.971 11.661 11.361 11.778 6.389 0.114 11.661-4.974 11.776-11.363s-4.972-11.662-11.361-11.776" fill="#3c2a34"/></g><g transform="translate(348.95 164.03)" fill="#acc9bd"><path d="m0 0c-8.148-0.146-14.872 6.34-15.018 14.487-0.145 8.148 6.342 14.871 14.488 15.017 8.147 0.146 14.871-6.34 15.016-14.487 0.147-8.147-6.34-14.871-14.486-15.017" fill="#acc9bd"/></g><g transform="translate(218.92 149.61)"><path d="m0 0s55.24 41.579-40.648 83.158c0 0 104.4-33.636 40.648-83.158" fill="#d0c4b3"/></g><g transform="translate(157.75 236.51)"><path d="m0 0s75.747-32.948 80.863-24.063c7.377 12.81-69.087 59.65-80.863 24.063" fill="#3c2a34"/></g><g transform="translate(348.96 135.33)"><path d="m0 0s-19.572 19.867-16.115 64.643c0 0-7.235-42.208 16.115-64.643" fill="#fffaef"/></g><g transform="translate(338.77 128.08)"><path d="m0 0s-18.215 27.573-7.221 71.544c0 0-13.05-46.294 7.221-71.544" fill="#fffaef"/></g><g transform="translate(324.15 135.25)"><path d="m0 0s-13.538 25.975 6.177 64.732c0 0-22.896-37-6.177-64.732" fill="#fffaef"/></g><g transform="translate(340.25 280.08)"><path d="m0 0s-20.344-19.078-18.66-63.954c0 0-5.559 42.46 18.66 63.954" fill="#fffaef"/></g><g transform="translate(330.36 287.73)" fill="#fffaef"><path d="m0 0s-19.29-26.833-10.045-71.203c0 0-11.209 46.774 10.045 71.203" fill="#fffaef"/></g><g transform="translate(315.46 281.14)"><path d="m0 0s-14.556-25.417 3.612-64.926c0 0-21.414 37.878-3.612 64.926" fill="#fffaef"/></g><g transform="translate(312.86 212.22)"><path d="m0 0 15.068-8.447-17.528-8.346 8.764 8.397z" fill="#3c2a34"/></g><g transform="translate(340.64 206.79)" fill="#b24201"><path d="m0 0-9.698-2.963 8.925-4.694z" fill="#b24201"/></g><g transform="translate(288.68 142.78)"><path d="m0 0s16.871 21.251 0.108 47.575c-8.836 13.875-26.94 17.925-30.307 7.682-3.369-10.243 13.333-14.586 12.463-27.554-0.669-9.955-14.821-27.688-14.821-27.688l15.463-0.528z" fill="#3c2a34"/></g><g transform="translate(279.88 255.88)"><path d="m0 0s18.126-7.531 1.757-34.102c-8.628-14.004-26.671-18.323-30.192-8.13-3.519 10.191 13.116 14.782 12.052 27.736-0.816 9.944-15.301 24.57-15.301 24.57z" fill="#3c2a34"/></g><g transform="translate(355.41 221.32)"><path d="m0 0c0-1.346-1.091-2.437-2.436-2.437s-2.436 1.091-2.436 2.437c0 1.345 1.091 2.436 2.436 2.436s2.436-1.091 2.436-2.436" fill="#f5efdb"/></g><g transform="translate(348.12 167.22)"><path d="m0 0c-6.388-0.115-11.66 4.973-11.775 11.361-0.115 6.39 4.972 11.661 11.36 11.778 6.391 0.114 11.662-4.974 11.777-11.363 0.116-6.389-4.972-11.662-11.362-11.776" fill="#3c2a34"/></g><g transform="translate(358.25 170.05)"><path d="m0 0c0-1.347-1.091-2.437-2.437-2.437-1.343 0-2.436 1.09-2.436 2.437 0 1.345 1.093 2.436 2.436 2.436 1.346 0 2.437-1.091 2.437-2.436" fill="#f5efdb"/></g><g transform="translate(200.54 147.11)"><path d="m0 0s-8.21 38.703-59.93 31.68c-21.5-2.92 13.612 70.044-30.671 59.638 0 0-25.273-94.09 90.601-91.318" fill="#3c2a34"/></g><g fill="#fac999"><g transform="translate(189.84 239.18)"><path d="m0 0s21.16-2.44 20.224-10.71c-0.935-8.269-37.786 10.216-20.224 10.71" fill="#fac999"/></g><g transform="translate(220.77 232.47)"><path d="m0 0s-3.874 2.133-5.678-0.516c-1.804-2.648 13.193-5.798 5.678 0.516" fill="#fac999"/></g><g transform="translate(220.17 226.44)"><path d="m0 0s-3.666 2.476-5.701 0c-2.036-2.476 12.614-6.967 5.701 0" fill="#fac999"/></g><g transform="translate(216.66 220.31)"><path d="m0 0s-1.6613 2.6735-4.2763 0.81949c-2.614-1.853 9.1173-9.3585 4.2763-0.81949" fill="#fac999"/></g></g><g transform="translate(258.49 198.04)"><path d="m0 0s5.84-4.202 7.086-7.68c0 0-0.473 7.968-7.086 7.68" fill="#f5efdb"/></g><g transform="translate(260.76 201.22)"><path d="m0 0s5.84-4.202 7.086-7.68c0 0-0.473 7.968-7.086 7.68" fill="#f5efdb"/></g><g transform="translate(265.57 203.46)"><path d="m0 0s5.84-4.202 7.086-7.68c0 0-0.473 7.968-7.086 7.68" fill="#f5efdb"/></g><g transform="translate(258.53 224.16)"><path d="m0 0s-3.928-6.027-7.344-7.433c0 0 7.938 0.84 7.344 7.433" fill="#f5efdb"/></g><g transform="translate(260.85 219.96)"><path d="m0 0s-4.357-5.725-7.867-6.877c0 0 7.977 0.258 7.867 6.877" fill="#f5efdb"/></g><g transform="translate(229.56 220.14)"><path d="m0 0s6.688-2.65 8.746-5.719c0 0-2.402 7.613-8.746 5.719" fill="#f5efdb"/></g><g transform="translate(226.94 215.98)"><path d="m0 0s7.078-1.291 9.695-3.897c0 0-3.844 6.995-9.695 3.897" fill="#f5efdb"/></g><g transform="translate(154.06 294.1)"><path d="M 0,0 C 0,0 82.297,7.09 82.566,17.339 82.954,32.117 -6.588,36.901 0,0" fill="#3c2a34"/></g><g transform="translate(181.02 311.73)"><path d="m0 0s19.77 7.928 22.884 0.21c3.115-7.715-38.093-9.006-22.884-0.21" fill="#fac999"/></g><g transform="translate(211.41 320.55)"><path d="m0 0s-4.423 0.032-4.748-3.156 14.362 1.181 4.748 3.156" fill="#fac999"/></g><g transform="translate(213.76 314.96)" fill="#fac999"><path d="m0 0s-4.402 0.432-5.013-2.714c-0.612-3.147 14.409-0.121 5.013 2.714" fill="#fac999"/></g><g transform="translate(213.58 307.89)" fill="#fac999"><path d="m0 0s-4.133 1.573-5.551-1.303c-1.416-2.874 13.874-3.901 5.551 1.303" fill="#fac999"/></g><g transform="translate(225.01 313.89)"><path d="m0 0s7.144 0.854 10.414-0.865c0 0-5.737 5.55-10.414 0.865" fill="#f5efdb"/></g><g transform="translate(224.68 308.98)"><path d="m0 0s6.839 2.234 10.381 1.188c0 0-6.711 4.321-10.381-1.188" fill="#f5efdb"/></g><g transform="translate(264.5 216.8)"><path d="m0 0s-3.928-6.027-7.344-7.433c0 0 7.938 0.84 7.344 7.433" fill="#f5efdb"/></g></g></svg>
